<svg width="147" height="147" viewBox="0 0 147 147" fill="none" xmlns="http://www.w3.org/2000/svg">
<path fill-rule="evenodd" clip-rule="evenodd" d="M36.163 31.3881V31.3881H58.0135C59.1425 31.3881 60.1759 32.022 60.6876 33.0284C61.1994 34.0348 61.1027 35.2433 60.4376 36.1555C58.2843 39.109 56.1411 42.1904 54.0579 45.3498L54.0499 45.3619C47.3252 55.4538 41.2749 65.5582 37.5697 72.1662C37.1055 72.9941 36.2768 73.5535 35.3353 73.6745C34.3938 73.7954 33.4506 73.4637 32.7921 72.78L23.4019 63.0298L23.3842 63.0112C16.4474 55.6841 16.4474 44.2128 23.3842 36.8857L23.3913 36.8782L23.3914 36.8782C26.7201 33.3864 31.3292 31.4036 36.1534 31.3882L36.163 31.3881ZM36.1681 37.3881C32.9816 37.3996 29.9374 38.7091 27.7377 41.0146C22.9979 46.0251 22.9963 53.8649 27.7329 58.8773L34.3317 65.7291C38.0982 59.2112 43.334 50.6236 49.0528 42.0408C50.0895 40.4687 51.1403 38.9159 52.1995 37.3881H36.1681Z" fill="#007A80"/>
<path fill-rule="evenodd" clip-rule="evenodd" d="M113.975 86.3147C114.982 86.8265 115.615 87.8599 115.615 88.9889V110.839L115.615 110.849C115.6 115.673 113.617 120.282 110.125 123.611L110.118 123.618C102.791 130.555 91.3195 130.555 83.9924 123.618L83.9739 123.6L74.2237 114.21C73.54 113.552 73.2082 112.609 73.3292 111.667C73.4501 110.726 74.0095 109.897 74.8375 109.433C81.4455 105.727 91.5498 99.6772 101.642 92.9525L101.654 92.9445C104.813 90.8613 107.895 88.7181 110.848 86.5648C111.76 85.8997 112.969 85.803 113.975 86.3147ZM104.963 97.9495C96.3801 103.668 87.7925 108.904 81.2745 112.671L88.1263 119.269C93.1388 124.006 100.979 124.005 105.989 119.264C108.295 117.065 109.604 114.021 109.615 110.834V94.8029C108.088 95.8621 106.535 96.9129 104.963 97.9495Z" fill="#007A80"/>
<path fill-rule="evenodd" clip-rule="evenodd" d="M78.1741 15.2724C71.5129 21.4855 65.5841 28.4402 60.5034 36.0009C59.5793 37.3761 57.7153 37.7418 56.3401 36.8177C54.9649 35.8936 54.5992 34.0296 55.5234 32.6544C60.8764 24.6884 67.1259 17.3629 74.1492 10.8218C74.1904 10.7834 74.2328 10.7461 74.2762 10.7101C78.038 7.58339 83.2692 5.442 88.9865 3.95018C94.7509 2.44604 101.266 1.53786 107.81 1.03337C120.896 0.024529 134.397 0.608244 142.863 1.45178C144.284 1.59343 145.409 2.71794 145.55 4.13956C146.394 12.6055 146.978 26.1064 145.969 39.1933C145.464 45.7377 144.556 52.254 143.052 58.0198C141.56 63.7384 139.419 68.9711 136.293 72.7352C136.272 72.7605 136.25 72.7855 136.228 72.8101C136.213 72.828 136.197 72.8456 136.18 72.863C129.639 79.8863 122.314 86.1358 114.348 91.4888C112.973 92.4129 111.109 92.0473 110.185 90.6721C109.26 89.2969 109.626 87.4329 111.001 86.5088C118.562 81.4283 125.516 75.4996 131.729 68.8386C134.019 66.0515 135.86 61.8179 137.246 56.5052C138.63 51.1995 139.499 45.063 139.987 38.7322C140.87 27.2708 140.49 15.4196 139.805 7.19753C131.583 6.51209 119.731 6.1321 108.271 7.01562C101.941 7.50364 95.8056 8.37175 90.5013 9.7558C85.1899 11.1417 80.9585 12.9831 78.1741 15.2724ZM118.937 28.0663C120.108 29.2378 120.108 31.1373 118.937 32.3089L106.566 44.6792C105.395 45.8507 103.495 45.8507 102.324 44.6792C101.152 43.5076 101.152 41.6081 102.324 40.4365L114.694 28.0663C115.866 26.8947 117.765 26.8947 118.937 28.0663ZM32.8275 68.5397C33.9976 67.3667 35.8971 67.3644 37.0701 68.5345L57.7957 89.2101L78.4661 109.931C79.6363 111.104 79.634 113.003 78.461 114.173C77.288 115.343 75.3885 115.341 74.2184 114.168L53.5479 93.4476L32.8326 72.7823C31.6596 71.6121 31.6573 69.7126 32.8275 68.5397ZM28.8118 83.377C29.9837 84.5483 29.9841 86.4478 28.8128 87.6196L5.62227 110.82C4.45095 111.992 2.55145 111.992 1.37963 110.821C0.2078 109.65 0.20739 107.75 1.37871 106.578L24.5692 83.3779C25.7405 82.2061 27.64 82.2057 28.8118 83.377ZM46.2008 100.787C47.3729 101.958 47.3737 103.857 46.2026 105.03L34.6224 116.62C33.4513 117.792 31.5518 117.793 30.3797 116.622C29.2077 115.451 29.2068 113.551 30.3779 112.379L41.9581 100.789C43.1292 99.6166 45.0287 99.6158 46.2008 100.787ZM63.6233 118.189C64.7946 119.36 64.7942 121.26 63.6224 122.431L40.4219 145.622C39.2501 146.793 37.3506 146.793 36.1793 145.621C35.0079 144.449 35.0084 142.55 36.1802 141.378L59.3807 118.188C60.5525 117.016 62.452 117.017 63.6233 118.189Z" fill="#007A80"/>
</svg>
