<svg width="69" height="68" viewBox="0 0 69 68" fill="none" xmlns="http://www.w3.org/2000/svg">
<path d="M65.6667 50.7453C65.7234 52.8703 65.1567 54.882 64.1367 56.6103C63.5701 57.6303 62.8051 58.5654 61.9551 59.3304C60.0001 61.1437 57.4217 62.2487 54.56 62.3337C50.4234 62.4187 46.7684 60.2937 44.7567 57.0354C43.6801 55.3637 43.0284 53.3521 43.0001 51.2271C42.9151 47.6571 44.5017 44.427 47.0517 42.302C48.9784 40.7153 51.4151 39.7237 54.0784 39.667C60.3401 39.5254 65.5251 44.4836 65.6667 50.7453Z" stroke="#007A80" stroke-width="2" stroke-miterlimit="10" stroke-linecap="round" stroke-linejoin="round"/>
<path d="M49.9133 51.085L52.775 53.8049L58.6967 48.0815" stroke="#007A80" stroke-width="2" stroke-linecap="round" stroke-linejoin="round"/>
<path d="M9.48169 21.0801L34.5 35.5584L59.3483 21.165" stroke="#007A80" stroke-width="2" stroke-linecap="round" stroke-linejoin="round"/>
<path d="M34.5 61.2286V35.5303" stroke="#007A80" stroke-width="2" stroke-linecap="round" stroke-linejoin="round"/>
<path d="M61.7283 25.9818V42.0185C61.7283 42.1602 61.7284 42.2734 61.7 42.4151C59.7167 40.6867 57.1667 39.6668 54.3334 39.6668C51.67 39.6668 49.205 40.6018 47.25 42.1602C44.6434 44.2285 43 47.4301 43 51.0001C43 53.1251 43.595 55.1368 44.6433 56.8368C44.8983 57.2901 45.21 57.7152 45.55 58.1118L40.365 60.9735C37.135 62.7869 31.865 62.7869 28.635 60.9735L13.505 52.5868C10.0767 50.6885 7.27173 45.9285 7.27173 42.0185V25.9818C7.27173 22.0718 10.0767 17.3118 13.505 15.4135L28.635 7.02675C31.865 5.21341 37.135 5.21341 40.365 7.02675L55.495 15.4135C58.9234 17.3118 61.7283 22.0718 61.7283 25.9818Z" stroke="#007A80" stroke-width="2" stroke-linecap="round" stroke-linejoin="round"/>
</svg>
