<svg width="89" height="70" viewBox="0 0 89 70" fill="none" xmlns="http://www.w3.org/2000/svg">
<path d="M0.666667 64C0.666667 66.9455 3.05448 69.3333 6 69.3333C8.94552 69.3333 11.3333 66.9455 11.3333 64C11.3333 61.0545 8.94552 58.6667 6 58.6667C3.05448 58.6667 0.666667 61.0545 0.666667 64ZM77.6667 6C77.6667 8.94552 80.0545 11.3333 83 11.3333C85.9455 11.3333 88.3333 8.94552 88.3333 6C88.3333 3.05448 85.9455 0.666667 83 0.666667C80.0545 0.666667 77.6667 3.05448 77.6667 6ZM28 43H55V41H28V43ZM84 14V6H82V14H84ZM55 43C71.0163 43 84 30.0163 84 14H82C82 28.9117 69.9117 41 55 41V43ZM7 64C7 52.402 16.402 43 28 43V41C15.2975 41 5 51.2975 5 64H7Z" fill="#96B2B4"/>
</svg>
