<svg width="12" height="70" viewBox="0 0 12 70" fill="none" xmlns="http://www.w3.org/2000/svg">
<path d="M0.666667 64C0.666667 66.9455 3.05448 69.3333 6 69.3333C8.94552 69.3333 11.3333 66.9455 11.3333 64C11.3333 61.0545 8.94552 58.6667 6 58.6667C3.05448 58.6667 0.666667 61.0545 0.666667 64ZM0.666667 6C0.666667 8.94552 3.05448 11.3333 6 11.3333C8.94552 11.3333 11.3333 8.94552 11.3333 6C11.3333 3.05448 8.94552 0.666667 6 0.666667C3.05448 0.666667 0.666667 3.05448 0.666667 6ZM7 64V6H5V64H7Z" fill="#96B2B4"/>
</svg>
