<svg width="222" height="70" viewBox="0 0 222 70" fill="none" xmlns="http://www.w3.org/2000/svg">
<path d="M0.666667 64C0.666667 66.9455 3.05448 69.3333 6 69.3333C8.94552 69.3333 11.3333 66.9455 11.3333 64C11.3333 61.0545 8.94552 58.6667 6 58.6667C3.05448 58.6667 0.666667 61.0545 0.666667 64ZM210.667 6C210.667 8.94552 213.054 11.3333 216 11.3333C218.946 11.3333 221.333 8.94552 221.333 6C221.333 3.05448 218.946 0.666667 216 0.666667C213.054 0.666667 210.667 3.05448 210.667 6ZM28 43H188V41H28V43ZM217 14V6H215V14H217ZM188 43C204.016 43 217 30.0163 217 14H215C215 28.9117 202.912 41 188 41V43ZM7 64C7 52.402 16.402 43 28 43V41C15.2975 41 5 51.2975 5 64H7Z" fill="#96B2B4"/>
</svg>
