<svg width="180" height="51" viewBox="0 0 180 51" fill="none" xmlns="http://www.w3.org/2000/svg">
<path d="M65.8269 0.427734H61.7314L75.9156 18.7074L78.0133 16.0104L65.8269 0.427734Z" fill="#6B727B"/>
<path d="M71.5205 27.6974C65.9268 27.2979 61.4317 22.6031 61.4317 16.8095C61.4317 11.5154 65.2275 7.1203 70.222 6.12141L68.1243 3.42441C62.4306 5.22241 58.3352 10.5165 58.3352 16.8095C58.3352 24.501 64.6282 30.794 72.3196 30.794C72.8191 30.794 73.3185 30.794 73.818 30.6941L71.5205 27.6974Z" fill="#6B727B"/>
<path d="M72.919 5.82174C78.7125 6.12141 83.3074 10.9161 83.3074 16.7096C83.3074 22.1037 79.4118 26.5987 74.3174 27.4977L76.4151 30.1947C82.2087 28.4965 86.404 23.1025 86.404 16.8095C86.404 9.11808 80.111 2.82507 72.4195 2.82507C71.8202 2.82507 71.2209 2.82507 70.6215 2.92496L72.919 5.82174Z" fill="#6B727B"/>
<path d="M78.6127 33.0914H82.7081L68.424 14.8118L66.4262 17.5088L78.6127 33.0914Z" fill="#6B727B"/>
<path d="M0.799112 5.3223H9.58935L20.1776 19.6064H20.2775V5.3223H27.5694V28.1969H19.1787L8.1909 13.713V28.1969H0.799112V5.3223Z" fill="#6B727B"/>
<path d="M35.8602 5.3223H47.6471C52.6415 5.3223 55.3385 7.61974 55.3385 11.915C55.3385 16.2102 52.7414 19.107 47.9467 19.107H39.3563V28.2968H35.96V5.3223M47.4473 16.1103C50.8435 16.1103 51.9423 14.3123 51.9423 12.0149C51.9423 9.8173 50.6437 8.31897 48.0466 8.31897H39.2564V16.1103H47.4473Z" fill="#6B727B"/>
<path d="M105.283 9.21797H105.183L98.8901 28.1969H95.1942L87.6027 5.3223H91.2986L97.192 23.9017L103.385 5.3223H107.381L113.674 23.9017H113.774L119.567 5.3223H123.063L115.372 28.1969H111.676L105.283 9.21797Z" fill="#6B727B"/>
<path d="M128.657 5.3223H147.137V8.21908H132.053V14.9116H146.637V17.8084H132.053V25.2002H147.436V28.1969H128.657V5.3223Z" fill="#6B727B"/>
<path d="M154.728 5.3223H168.912C173.507 5.3223 175.205 8.51874 175.205 11.4155C175.205 14.2124 173.907 16.2102 171.31 17.1092V17.2091C173.407 17.5088 174.506 19.4066 174.606 22.1036C174.806 26.299 175.006 27.4977 175.705 28.2968H172.109C171.609 27.6974 171.609 26.6985 171.41 23.9017C171.11 19.8062 169.811 18.5076 167.014 18.5076H158.124V28.1969H154.728V5.3223ZM167.614 15.511C170.91 15.511 171.709 13.5132 171.709 11.915C171.709 9.71741 170.411 8.21908 167.714 8.21908H158.124V15.511H167.614Z" fill="#6B727B"/>
<path d="M0 38.4855H2.49723C3.29634 38.4855 5.4939 38.4855 5.4939 41.2823C5.4939 43.0803 4.39512 44.0792 2.697 44.0792H1.19867V48.1747H0V38.4855ZM1.19867 43.0803H2.59711C3.49612 43.0803 4.19534 42.481 4.19534 41.1825C4.19534 40.0837 3.69589 39.4843 2.49723 39.4843H1.19867V43.0803Z" fill="#6B727B"/>
<path d="M8.49057 40.7829C10.5882 40.7829 11.0877 42.5809 11.0877 44.5787C11.0877 46.5765 10.5882 48.3745 8.49057 48.3745C6.3929 48.3745 5.89345 46.5765 5.89345 44.5787C5.89345 42.481 6.3929 40.7829 8.49057 40.7829ZM9.88901 44.5787C9.88901 42.9805 9.68923 41.6819 8.49057 41.6819C7.2919 41.6819 7.09212 43.0803 7.09212 44.5787C7.09212 46.1769 7.2919 47.4755 8.49057 47.4755C9.68923 47.4755 9.88901 46.077 9.88901 44.5787Z" fill="#6B727B"/>
<path d="M11.7869 40.8828H12.9856L14.0844 46.8761L15.3829 40.8828H16.6815L17.8801 46.8761L19.0788 40.8828H20.2775L18.4795 48.1747H17.2808L15.9822 42.2812L14.7836 48.1747H13.485L11.7869 40.8828Z" fill="#6B727B"/>
<path d="M22.0755 44.6786C22.0755 45.7773 22.0755 47.4755 23.4739 47.4755C24.5727 47.4755 24.6726 46.3767 24.6726 45.7773H25.7714C25.7714 46.5765 25.3718 48.3745 23.374 48.3745C21.576 48.3745 20.8768 47.1758 20.8768 44.6786C20.8768 42.8806 21.2764 40.7829 23.4739 40.7829C25.6715 40.7829 25.8713 42.6808 25.8713 44.279V44.7785H22.0755M24.6726 43.7796V43.38C24.6726 42.5809 24.4728 41.582 23.374 41.582C22.1754 41.582 22.0755 43.0803 22.0755 43.4799V43.7796H24.6726Z" fill="#6B727B"/>
<path d="M27.0699 40.8828H28.1687V41.9816C28.4684 41.2823 28.8679 40.683 29.7669 40.683C29.9667 40.683 30.1665 40.683 30.2664 40.7829V41.8817C30.1665 41.8817 30.0666 41.7818 29.667 41.7818C29.0677 41.7818 28.1687 42.2812 28.1687 43.4799V48.0748H27.0699V40.8828Z" fill="#6B727B"/>
<path d="M34.162 43.0803C34.162 41.4821 34.8613 40.683 36.5594 40.683C38.7569 40.683 38.7569 41.9816 38.7569 42.7807V46.7762C38.7569 47.0759 38.7569 47.3756 39.1565 47.3756C39.2564 47.3756 39.3563 47.3756 39.4562 47.2757V48.0748C39.3563 48.0748 39.0566 48.1747 38.7569 48.1747C38.3574 48.1747 37.758 48.1747 37.758 47.2757C37.3585 47.875 36.6593 48.2746 36.0599 48.2746C34.6615 48.2746 34.0622 47.4755 34.0622 46.1769C34.0622 45.178 34.4617 44.4788 35.4606 44.1791L36.9589 43.6797C37.758 43.5798 37.758 43.2801 37.758 42.6808C37.758 41.9816 37.3585 41.582 36.5594 41.582C35.3607 41.582 35.3607 42.7807 35.3607 42.9805V43.0803H34.162ZM37.6582 44.1791C37.2586 44.5787 36.2597 44.6786 35.7603 45.0781C35.3607 45.2779 35.1609 45.5776 35.1609 46.2768C35.1609 46.976 35.4606 47.4755 36.1598 47.4755C36.9589 47.4755 37.6582 46.8761 37.6582 46.077V44.1791Z" fill="#6B727B"/>
<path d="M40.3552 40.8828H41.4539V41.7818C41.7536 41.0826 42.5527 40.7829 43.2519 40.7829C45.1498 40.7829 45.1498 42.1813 45.1498 43.0803V48.1747H44.0511V43.1802C44.0511 42.5809 44.0511 41.6819 42.9523 41.6819C42.3529 41.6819 41.5538 42.0815 41.5538 43.1802V48.1747H40.4551V40.8828" fill="#6B727B"/>
<path d="M51.343 48.1747H50.2442V47.2757C50.1443 47.7751 49.4451 48.3745 48.646 48.3745C46.9478 48.3745 46.2486 46.8761 46.2486 44.5787C46.2486 43.0803 46.4484 40.7829 48.5461 40.7829C49.2453 40.7829 49.8446 41.1825 50.1443 41.7818V38.5853H51.2431V48.1747M48.8457 47.3756C50.0444 47.3756 50.3441 46.1769 50.3441 44.5787C50.3441 43.1802 50.1443 41.7818 48.8457 41.7818C47.8468 41.7818 47.5472 42.8806 47.5472 44.5787C47.5472 46.2768 47.8468 47.3756 48.8457 47.3756Z" fill="#6B727B"/>
<path d="M55.9379 43.0803C55.9379 41.4821 56.6371 40.683 58.3352 40.683C60.5327 40.683 60.5327 41.9816 60.5327 42.7807V46.7762C60.5327 47.0759 60.5327 47.3756 60.9323 47.3756C61.0322 47.3756 61.1321 47.3756 61.232 47.2757V48.0748C61.1321 48.0748 60.8324 48.1747 60.5327 48.1747C60.1332 48.1747 59.5339 48.1747 59.5339 47.2757C59.1343 47.875 58.4351 48.2746 57.8357 48.2746C56.4373 48.2746 55.838 47.4755 55.838 46.1769C55.838 45.178 56.2375 44.4788 57.2364 44.1791L58.7347 43.6797C59.5339 43.38 59.5339 43.1802 59.5339 42.5809C59.5339 41.8817 59.1343 41.4821 58.3352 41.4821C57.1365 41.4821 57.1365 42.6808 57.1365 42.8806V42.9805H55.9379M59.434 44.1791C59.0344 44.5787 58.0355 44.6786 57.5361 45.0781C57.1365 45.2779 56.9367 45.5776 56.9367 46.2768C56.9367 46.976 57.2364 47.4755 57.9356 47.4755C58.7347 47.4755 59.434 46.8761 59.434 46.077V44.1791Z" fill="#6B727B"/>
<path d="M66.9256 48.1747H65.8269V47.2757C65.5272 47.9749 64.7281 48.2746 64.0289 48.2746C62.131 48.2746 62.131 46.8761 62.131 45.9771V40.8828H63.2297V45.8772C63.2297 46.4766 63.2297 47.3756 64.3285 47.3756C64.9279 47.3756 65.727 46.976 65.727 45.8772V40.8828H66.8258V48.1747" fill="#6B727B"/>
<path d="M68.7236 38.7851H69.8224V40.8828H71.121V41.7818H69.8224V46.4766C69.8224 47.0759 69.9223 47.2757 70.5217 47.2757C70.8213 47.2757 70.9212 47.2757 71.0211 47.2757V48.1747C70.9212 48.1747 70.6215 48.2746 70.1221 48.2746C68.9234 48.2746 68.6238 47.7751 68.6238 46.8761V41.8817H67.525V40.9827H68.7236V38.7851Z" fill="#6B727B"/>
<path d="M74.1177 40.7829C76.2153 40.7829 76.7148 42.5809 76.7148 44.5787C76.7148 46.5765 76.2153 48.3745 74.1177 48.3745C72.02 48.3745 71.5205 46.5765 71.5205 44.5787C71.5205 42.481 72.02 40.7829 74.1177 40.7829ZM75.5161 44.5787C75.5161 42.9805 75.3163 41.6819 74.1177 41.6819C72.919 41.582 72.7192 42.9805 72.7192 44.5787C72.7192 46.1769 72.919 47.4755 74.1177 47.4755C75.3163 47.4755 75.5161 46.077 75.5161 44.5787Z" fill="#6B727B"/>
<path d="M78.0133 40.8828H79.1121V41.7818C79.4118 41.0826 80.2109 40.7829 80.9101 40.7829C81.8091 40.7829 82.2087 41.0826 82.5083 41.9816C82.808 41.3822 83.5072 40.7829 84.2064 40.7829C86.1043 40.7829 86.1043 42.1813 86.1043 43.0803V48.1747H85.0056V43.1802C85.0056 42.5809 85.0056 41.6819 84.0067 41.6819C83.5072 41.6819 82.6082 41.9816 82.6082 43.1802V48.1747H81.5094V43.1802C81.5094 42.5809 81.5094 41.6819 80.5106 41.6819C80.0111 41.6819 79.1121 41.9816 79.1121 43.1802V48.1747H78.0133V40.8828Z" fill="#6B727B"/>
<path d="M87.4029 43.0803C87.4029 41.4821 88.1021 40.683 89.8002 40.683C91.9978 40.683 91.9978 41.9816 91.9978 42.7807V46.7762C91.9978 47.0759 91.9978 47.3756 92.3973 47.3756C92.4972 47.3756 92.5971 47.3756 92.697 47.2757V48.0748C92.5971 48.0748 92.2975 48.1747 91.9978 48.1747C91.5982 48.1747 90.9989 48.1747 90.9989 47.2757C90.5993 47.875 89.9001 48.2746 89.3008 48.2746C87.9023 48.2746 87.303 47.4755 87.303 46.1769C87.303 45.178 87.7026 44.4788 88.7014 44.1791L90.1998 43.6797C90.9989 43.38 90.9989 43.1802 90.9989 42.5809C90.9989 41.8817 90.5993 41.4821 89.8002 41.4821C88.6016 41.4821 88.6016 42.6808 88.6016 42.8806V42.9805H87.4029M90.899 44.1791C90.4995 44.5787 89.5006 44.6786 89.0011 45.0781C88.6016 45.2779 88.4018 45.5776 88.4018 46.2768C88.4018 46.976 88.7014 47.4755 89.4007 47.4755C90.1998 47.4755 90.899 46.8761 90.899 46.077V44.1791Z" fill="#6B727B"/>
<path d="M94.0955 38.7851H95.1942V40.8828H96.4928V41.7818H95.1942V46.4766C95.1942 47.0759 95.2941 47.2757 95.8935 47.2757C96.1931 47.2757 96.293 47.2757 96.3929 47.2757V48.1747C96.293 48.1747 95.9933 48.2746 95.4939 48.2746C94.2952 48.2746 93.9956 47.7751 93.9956 46.8761V41.8817H92.8968V40.9827H93.9956V38.7851" fill="#6B727B"/>
<path d="M97.2919 38.4855H98.3907V39.784H97.2919V38.4855ZM97.2919 40.8828H98.3907V48.1747H97.2919V40.8828Z" fill="#6B727B"/>
<path d="M102.286 40.7829C104.384 40.7829 104.883 42.5809 104.883 44.5787C104.883 46.5765 104.384 48.3745 102.286 48.3745C100.189 48.3745 99.6892 46.5765 99.6892 44.5787C99.6892 42.481 100.189 40.7829 102.286 40.7829ZM103.685 44.5787C103.685 42.9805 103.485 41.6819 102.286 41.6819C101.188 41.6819 100.888 43.0803 100.888 44.5787C100.888 46.1769 101.088 47.4755 102.286 47.4755C103.485 47.4755 103.685 46.077 103.685 44.5787Z" fill="#6B727B"/>
<path d="M105.982 40.8828H107.081V41.7818C107.381 41.0826 108.18 40.7829 108.879 40.7829C110.777 40.7829 110.777 42.1813 110.777 43.0803V48.1747H109.678V43.1802C109.678 42.5809 109.678 41.6819 108.579 41.6819C107.98 41.6819 107.181 42.0815 107.181 43.1802V48.1747H106.082V40.8828" fill="#6B727B"/>
<path d="M115.871 38.7851H116.97V40.8828H118.269V41.7818H116.97V46.4766C116.97 47.0759 117.07 47.2757 117.669 47.2757C117.969 47.2757 118.069 47.2757 118.169 47.2757V48.1747C118.069 48.1747 117.769 48.2746 117.27 48.2746C116.071 48.2746 115.771 47.7751 115.771 46.8761V41.8817H114.673V40.9827H115.771V38.7851" fill="#6B727B"/>
<path d="M119.967 44.6786C119.967 45.7773 119.967 47.4755 121.365 47.4755C122.464 47.4755 122.564 46.3767 122.564 45.7773H123.663C123.663 46.5765 123.263 48.3745 121.265 48.3745C119.467 48.3745 118.768 47.1758 118.768 44.6786C118.768 42.8806 119.168 40.7829 121.365 40.7829C123.563 40.7829 123.762 42.6808 123.762 44.279V44.7785H119.967M122.564 43.7796V43.38C122.564 42.5809 122.364 41.582 121.265 41.582C120.067 41.582 119.967 43.0803 119.967 43.4799V43.7796H122.564Z" fill="#6B727B"/>
<path d="M128.457 43.1802C128.457 42.481 128.158 41.6819 127.259 41.6819C126.559 41.6819 125.86 42.0815 125.86 44.6786C125.86 45.5776 125.86 47.4755 127.259 47.4755C128.258 47.4755 128.457 46.4766 128.457 45.6775H129.556C129.556 46.7762 128.957 48.3745 127.159 48.3745C125.361 48.3745 124.661 47.1758 124.661 44.6786C124.661 42.8806 125.061 40.7829 127.259 40.7829C129.256 40.7829 129.556 42.3811 129.556 43.1802H128.457Z" fill="#6B727B"/>
<path d="M130.755 38.4855H131.854V41.6819C132.153 41.0826 132.952 40.683 133.552 40.683C135.45 40.683 135.45 42.0815 135.45 42.9805V48.0748H134.351V43.0803C134.351 42.481 134.351 41.582 133.252 41.582C132.653 41.582 131.854 41.9816 131.854 43.0803V48.0748H130.755V38.4855Z" fill="#6B727B"/>
<path d="M137.048 40.8828H138.147V41.7818C138.446 41.0826 139.245 40.7829 139.945 40.7829C141.842 40.7829 141.842 42.1813 141.842 43.0803V48.1747H140.644V43.1802C140.644 42.5809 140.644 41.6819 139.545 41.6819C138.946 41.6819 138.147 42.0815 138.147 43.1802V48.1747H137.048V40.8828Z" fill="#6B727B"/>
<path d="M145.538 40.7829C147.636 40.7829 148.135 42.5809 148.135 44.5787C148.135 46.5765 147.636 48.3745 145.538 48.3745C143.441 48.3745 142.941 46.5765 142.941 44.5787C142.941 42.481 143.441 40.7829 145.538 40.7829ZM146.937 44.5787C146.937 42.9805 146.737 41.6819 145.538 41.6819C144.44 41.6819 144.14 43.0803 144.14 44.5787C144.14 46.1769 144.34 47.4755 145.538 47.4755C146.737 47.4755 146.937 46.077 146.937 44.5787Z" fill="#6B727B"/>
<path d="M150.433 38.4855H149.334V48.1747H150.433V38.4855Z" fill="#6B727B"/>
<path d="M154.329 40.7829C156.426 40.7829 156.926 42.5809 156.926 44.5787C156.926 46.5765 156.426 48.3745 154.329 48.3745C152.231 48.3745 151.731 46.5765 151.731 44.5787C151.632 42.481 152.231 40.7829 154.329 40.7829ZM155.727 44.5787C155.727 42.9805 155.527 41.6819 154.329 41.6819C153.13 41.6819 152.93 43.0803 152.93 44.5787C152.93 46.1769 153.13 47.4755 154.329 47.4755C155.427 47.4755 155.727 46.077 155.727 44.5787Z" fill="#6B727B"/>
<path d="M162.819 47.6752C162.819 49.8728 161.82 50.572 160.322 50.572C159.922 50.572 158.124 50.572 157.925 48.774H159.023C159.123 49.4732 159.623 49.673 160.222 49.673C161.72 49.673 161.62 48.5742 161.62 48.0748V47.1758C161.321 47.7751 160.721 48.1747 160.022 48.1747C157.925 48.1747 157.825 45.4777 157.825 44.5787C157.825 42.5809 158.324 40.7829 160.222 40.7829C161.021 40.7829 161.62 41.2823 161.82 41.8817V40.9827H162.919V47.6752M158.923 44.5787C158.923 45.7773 159.123 47.2757 160.222 47.2757C161.421 47.2757 161.72 46.077 161.72 44.5787C161.72 43.1802 161.521 41.7818 160.222 41.7818C159.223 41.6819 158.923 42.7807 158.923 44.5787Z" fill="#6B727B"/>
<path d="M164.317 38.4855H165.416V39.784H164.317V38.4855ZM164.317 40.8828H165.416V48.1747H164.317V40.8828Z" fill="#6B727B"/>
<path d="M168.013 44.6786C168.013 45.7773 168.013 47.4755 169.412 47.4755C170.511 47.4755 170.61 46.3767 170.61 45.7773H171.709C171.709 46.5765 171.31 48.3745 169.312 48.3745C167.514 48.3745 166.815 47.1758 166.815 44.6786C166.815 42.8806 167.214 40.7829 169.412 40.7829C171.609 40.7829 171.809 42.6808 171.809 44.279V44.7785H168.013M170.61 43.7796V43.38C170.61 42.5809 170.411 41.582 169.312 41.582C168.113 41.582 168.013 43.0803 168.013 43.4799V43.7796H170.61Z" fill="#6B727B"/>
<path d="M176.104 43.0803C176.104 42.1813 175.905 41.6819 175.006 41.6819C174.606 41.6819 173.807 41.7818 173.807 42.7807C173.807 43.6797 174.706 43.7796 175.605 44.0792C176.504 44.3789 177.403 44.6786 177.403 46.077C177.403 47.5754 176.404 48.3745 175.105 48.3745C172.608 48.3745 172.608 46.5765 172.608 45.7773H173.707C173.707 46.6763 173.907 47.4755 175.105 47.4755C175.505 47.4755 176.304 47.2757 176.304 46.2768C176.304 45.2779 175.405 45.0781 174.506 44.7785C173.607 44.4788 172.708 44.1791 172.708 42.6808C172.708 41.2823 173.807 40.683 175.006 40.683C177.103 40.683 177.203 42.1813 177.203 42.9805H176.104" fill="#6B727B"/>
<path d="M180 46.7762H178.801V48.1747H180V46.7762Z" fill="#6B727B"/>
</svg>
