<svg width="69" height="68" viewBox="0 0 69 68" fill="none" xmlns="http://www.w3.org/2000/svg">
<path d="M34.5001 62.3332C50.1481 62.3332 62.8334 49.6479 62.8334 33.9998C62.8334 18.3518 50.1481 5.6665 34.5001 5.6665C18.852 5.6665 6.16675 18.3518 6.16675 33.9998C6.16675 49.6479 18.852 62.3332 34.5001 62.3332Z" stroke="#007A80" stroke-width="2" stroke-linecap="round" stroke-linejoin="round"/>
<path d="M23.1667 8.5H26.0001C20.4751 25.0467 20.4751 42.9533 26.0001 59.5H23.1667" stroke="#007A80" stroke-width="2" stroke-linecap="round" stroke-linejoin="round"/>
<path d="M43 8.5C48.525 25.0467 48.525 42.9533 43 59.5" stroke="#007A80" stroke-width="2" stroke-linecap="round" stroke-linejoin="round"/>
<path d="M9 45.3333V42.5C25.5467 48.025 43.4533 48.025 60 42.5V45.3333" stroke="#007A80" stroke-width="2" stroke-linecap="round" stroke-linejoin="round"/>
<path d="M9 25.5002C25.5467 19.9752 43.4533 19.9752 60 25.5002" stroke="#007A80" stroke-width="2" stroke-linecap="round" stroke-linejoin="round"/>
</svg>
