<svg width="69" height="68" viewBox="0 0 69 68" fill="none" xmlns="http://www.w3.org/2000/svg">
<path d="M34.5176 19L29.9364 27.5517C28.9089 29.4368 29.7652 31 31.7774 31H37.2148C39.2699 31 40.0834 32.5632 39.0559 34.4483L34.5176 43" stroke="#007A80" stroke-width="2" stroke-linecap="round" stroke-linejoin="round"/>
<path d="M24.0167 53.1133V49.8266C17.5 45.8883 12.145 38.2099 12.145 30.0499C12.145 16.0249 25.0367 5.03159 39.6 8.20493C46.0034 9.62159 51.6134 13.8716 54.5317 19.7366C60.4534 31.6366 54.22 44.2733 45.0684 49.7983V53.0849C45.0684 53.9066 45.38 55.8049 42.3484 55.8049H26.7367C23.62 55.8333 24.0167 54.6149 24.0167 53.1133Z" stroke="#007A80" stroke-width="2" stroke-linecap="round" stroke-linejoin="round"/>
<path d="M24.5833 62.3329C31.0716 60.4912 37.9283 60.4912 44.4166 62.3329" stroke="#007A80" stroke-width="2" stroke-linecap="round" stroke-linejoin="round"/>
</svg>
