<svg width="186" height="54" viewBox="0 0 186 54" fill="none" xmlns="http://www.w3.org/2000/svg">
<path d="M68.1 2.79999H64L78.2 21.1L80.3 18.4L68.1 2.79999Z" fill="#1D1D1B"/>
<path d="M73.8001 30.1C68.2001 29.7 63.7001 25 63.7001 19.2C63.7001 13.9 67.5001 9.49999 72.5001 8.49999L70.4001 5.79999C64.7001 7.59999 60.6001 12.9 60.6001 19.2C60.6001 26.9 66.9001 33.2 74.6001 33.2C75.1001 33.2 75.6001 33.2 76.1001 33.1L73.8001 30.1Z" fill="#1D1D1B"/>
<path d="M75.1999 8.20001C80.9999 8.50001 85.5999 13.3 85.5999 19.1C85.5999 24.5 81.6999 29 76.5999 29.9L78.6999 32.6C84.4999 30.9 88.6999 25.5 88.6999 19.2C88.6999 11.5 82.3999 5.20001 74.6999 5.20001C74.0999 5.20001 73.4999 5.20001 72.8999 5.30001L75.1999 8.20001Z" fill="#0099A8"/>
<path d="M80.9 35.5H85L70.7 17.2L68.7 19.9L80.9 35.5Z" fill="#0099A8"/>
<path d="M3 7.70001H11.8L22.4 22H22.5V7.70001H29.8V30.6H21.4L10.4 16.1V30.6H3V7.70001Z" fill="#0099A8"/>
<path d="M38.1001 7.70001H49.9001C54.9001 7.70001 57.6001 10 57.6001 14.3C57.6001 18.6 55.0001 21.5 50.2001 21.5H41.6001V30.7H38.2001V7.70001M49.7001 18.5C53.1001 18.5 54.2001 16.7 54.2001 14.4C54.2001 12.2 52.9001 10.7 50.3001 10.7H41.5001V18.5H49.7001Z" fill="#1D1D1B"/>
<path d="M107.6 11.6H107.5L101.2 30.6H97.4999L89.8999 7.70001H93.5999L99.4999 26.3L105.7 7.70001H109.7L116 26.3H116.1L121.9 7.70001H125.4L117.7 30.6H114L107.6 11.6Z" fill="#1D1D1B"/>
<path d="M131 7.70001H149.5V10.6H134.4V17.3H149V20.2H134.4V27.6H149.8V30.6H131V7.70001Z" fill="#1D1D1B"/>
<path d="M157.1 7.70001H171.3C175.9 7.70001 177.6 10.9 177.6 13.8C177.6 16.6 176.3 18.6 173.7 19.5V19.6C175.8 19.9 176.9 21.8 177 24.5C177.2 28.7 177.4 29.9 178.1 30.7H174.5C174 30.1 174 29.1 173.8 26.3C173.5 22.2 172.2 20.9 169.4 20.9H160.5V30.6H157.1V7.70001ZM170 17.9C173.3 17.9 174.1 15.9 174.1 14.3C174.1 12.1 172.8 10.6 170.1 10.6H160.5V17.9H170Z" fill="#1D1D1B"/>
<path d="M2.19995 40.9H4.69995C5.49995 40.9 7.69995 40.9 7.69995 43.7C7.69995 45.5 6.59995 46.5 4.89995 46.5H3.39995V50.6H2.19995V40.9ZM3.39995 45.5H4.79995C5.69995 45.5 6.39995 44.9 6.39995 43.6C6.39995 42.5 5.89995 41.9 4.69995 41.9H3.39995V45.5Z" fill="#0099A8"/>
<path d="M10.7001 43.2C12.8001 43.2 13.3001 45 13.3001 47C13.3001 49 12.8001 50.8 10.7001 50.8C8.6001 50.8 8.1001 49 8.1001 47C8.1001 44.9 8.6001 43.2 10.7001 43.2ZM12.1001 47C12.1001 45.4 11.9001 44.1 10.7001 44.1C9.5001 44.1 9.3001 45.5 9.3001 47C9.3001 48.6 9.5001 49.9 10.7001 49.9C11.9001 49.9 12.1001 48.5 12.1001 47Z" fill="#0099A8"/>
<path d="M14 43.3H15.2L16.3 49.3L17.6 43.3H18.9L20.1 49.3L21.3 43.3H22.5L20.7 50.6H19.5L18.2 44.7L17 50.6H15.7L14 43.3Z" fill="#0099A8"/>
<path d="M24.3001 47.1C24.3001 48.2 24.3001 49.9 25.7001 49.9C26.8001 49.9 26.9001 48.8 26.9001 48.2H28.0001C28.0001 49 27.6001 50.8 25.6001 50.8C23.8001 50.8 23.1001 49.6 23.1001 47.1C23.1001 45.3 23.5001 43.2 25.7001 43.2C27.9001 43.2 28.1001 45.1 28.1001 46.7V47.2H24.3001M26.9001 46.2V45.8C26.9001 45 26.7001 44 25.6001 44C24.4001 44 24.3001 45.5 24.3001 45.9V46.2H26.9001Z" fill="#0099A8"/>
<path d="M29.3 43.3H30.4V44.4C30.7 43.7 31.1 43.1 32 43.1C32.2 43.1 32.4 43.1 32.5 43.2V44.3C32.4 44.3 32.3 44.2 31.9 44.2C31.3 44.2 30.4 44.7 30.4 45.9V50.5H29.3V43.3Z" fill="#0099A8"/>
<path d="M36.4001 45.5C36.4001 43.9 37.1 43.1 38.8 43.1C41 43.1 41 44.4 41 45.2V49.2C41 49.5 41.0001 49.8 41.4001 49.8C41.5001 49.8 41.6001 49.8 41.7001 49.7V50.5C41.6001 50.5 41.3 50.6 41 50.6C40.6 50.6 40 50.6 40 49.7C39.6 50.3 38.9 50.7 38.3 50.7C36.9 50.7 36.3 49.9 36.3 48.6C36.3 47.6 36.7001 46.9 37.7001 46.6L39.2001 46.1C40.0001 46 40 45.7 40 45.1C40 44.4 39.6 44 38.8 44C37.6 44 37.6 45.2 37.6 45.4V45.5H36.4001ZM39.9001 46.6C39.5001 47 38.5 47.1 38 47.5C37.6 47.7 37.4001 48 37.4001 48.7C37.4001 49.4 37.7001 49.9 38.4001 49.9C39.2001 49.9 39.9001 49.3 39.9001 48.5V46.6Z" fill="#0099A8"/>
<path d="M42.6001 43.3H43.7001V44.2C44.0001 43.5 44.8001 43.2 45.5001 43.2C47.4001 43.2 47.4001 44.6 47.4001 45.5V50.6H46.3001V45.6C46.3001 45 46.3001 44.1 45.2001 44.1C44.6001 44.1 43.8001 44.5 43.8001 45.6V50.6H42.7001V43.3" fill="#0099A8"/>
<path d="M53.6 50.6H52.5V49.7C52.4 50.2 51.7 50.8 50.9 50.8C49.2 50.8 48.5 49.3 48.5 47C48.5 45.5 48.7 43.2 50.8 43.2C51.5 43.2 52.1 43.6 52.4 44.2V41H53.5V50.6M51.1 49.8C52.3 49.8 52.6 48.6 52.6 47C52.6 45.6 52.4 44.2 51.1 44.2C50.1 44.2 49.8 45.3 49.8 47C49.8 48.7 50.1 49.8 51.1 49.8Z" fill="#0099A8"/>
<path d="M58.2001 45.5C58.2001 43.9 58.9001 43.1 60.6001 43.1C62.8001 43.1 62.8001 44.4 62.8001 45.2V49.2C62.8001 49.5 62.8001 49.8 63.2001 49.8C63.3001 49.8 63.4001 49.8 63.5001 49.7V50.5C63.4001 50.5 63.1001 50.6 62.8001 50.6C62.4001 50.6 61.8001 50.6 61.8001 49.7C61.4001 50.3 60.7001 50.7 60.1001 50.7C58.7001 50.7 58.1001 49.9 58.1001 48.6C58.1001 47.6 58.5001 46.9 59.5001 46.6L61.0001 46.1C61.8001 45.8 61.8001 45.6 61.8001 45C61.8001 44.3 61.4001 43.9 60.6001 43.9C59.4001 43.9 59.4001 45.1 59.4001 45.3V45.4H58.2001M61.7001 46.6C61.3001 47 60.3001 47.1 59.8001 47.5C59.4001 47.7 59.2001 48 59.2001 48.7C59.2001 49.4 59.5001 49.9 60.2001 49.9C61.0001 49.9 61.7001 49.3 61.7001 48.5V46.6Z" fill="#0099A8"/>
<path d="M69.1999 50.6H68.0999V49.7C67.7999 50.4 66.9999 50.7 66.2999 50.7C64.3999 50.7 64.3999 49.3 64.3999 48.4V43.3H65.4999V48.3C65.4999 48.9 65.4999 49.8 66.5999 49.8C67.1999 49.8 67.9999 49.4 67.9999 48.3V43.3H69.0999V50.6" fill="#0099A8"/>
<path d="M71 41.2H72.1V43.3H73.4V44.2H72.1V48.9C72.1 49.5 72.2 49.7 72.8 49.7C73.1 49.7 73.2 49.7 73.3 49.7V50.6C73.2 50.6 72.9 50.7 72.4 50.7C71.2 50.7 70.9 50.2 70.9 49.3V44.3H69.8V43.4H71V41.2Z" fill="#0099A8"/>
<path d="M76.4 43.2C78.5 43.2 79 45 79 47C79 49 78.5 50.8 76.4 50.8C74.3 50.8 73.8 49 73.8 47C73.8 44.9 74.3 43.2 76.4 43.2ZM77.8 47C77.8 45.4 77.6 44.1 76.4 44.1C75.2 44 75 45.4 75 47C75 48.6 75.2 49.9 76.4 49.9C77.6 49.9 77.8 48.5 77.8 47Z" fill="#0099A8"/>
<path d="M80.3 43.3H81.4V44.2C81.7 43.5 82.5 43.2 83.2 43.2C84.1 43.2 84.5 43.5 84.8 44.4C85.1 43.8 85.8 43.2 86.5 43.2C88.4 43.2 88.4 44.6 88.4 45.5V50.6H87.3V45.6C87.3 45 87.3 44.1 86.3 44.1C85.8 44.1 84.9 44.4 84.9 45.6V50.6H83.8V45.6C83.8 45 83.8 44.1 82.8 44.1C82.3 44.1 81.4 44.4 81.4 45.6V50.6H80.3V43.3Z" fill="#0099A8"/>
<path d="M89.7001 45.5C89.7001 43.9 90.4001 43.1 92.1001 43.1C94.3001 43.1 94.3001 44.4 94.3001 45.2V49.2C94.3001 49.5 94.3001 49.8 94.7001 49.8C94.8001 49.8 94.9001 49.8 95.0001 49.7V50.5C94.9001 50.5 94.6001 50.6 94.3001 50.6C93.9001 50.6 93.3001 50.6 93.3001 49.7C92.9001 50.3 92.2001 50.7 91.6001 50.7C90.2001 50.7 89.6001 49.9 89.6001 48.6C89.6001 47.6 90.0001 46.9 91.0001 46.6L92.5001 46.1C93.3001 45.8 93.3001 45.6 93.3001 45C93.3001 44.3 92.9001 43.9 92.1001 43.9C90.9001 43.9 90.9001 45.1 90.9001 45.3V45.4H89.7001M93.2001 46.6C92.8001 47 91.8001 47.1 91.3001 47.5C90.9001 47.7 90.7001 48 90.7001 48.7C90.7001 49.4 91.0001 49.9 91.7001 49.9C92.5001 49.9 93.2001 49.3 93.2001 48.5V46.6Z" fill="#0099A8"/>
<path d="M96.4 41.2H97.5V43.3H98.8V44.2H97.5V48.9C97.5 49.5 97.6 49.7 98.2 49.7C98.5 49.7 98.6 49.7 98.7 49.7V50.6C98.6 50.6 98.3 50.7 97.8 50.7C96.6 50.7 96.3 50.2 96.3 49.3V44.3H95.2V43.4H96.3V41.2" fill="#0099A8"/>
<path d="M99.6001 40.9H100.7V42.2H99.6001V40.9ZM99.6001 43.3H100.7V50.6H99.6001V43.3Z" fill="#0099A8"/>
<path d="M104.6 43.2C106.7 43.2 107.2 45 107.2 47C107.2 49 106.7 50.8 104.6 50.8C102.5 50.8 102 49 102 47C102 44.9 102.5 43.2 104.6 43.2ZM106 47C106 45.4 105.8 44.1 104.6 44.1C103.5 44.1 103.2 45.5 103.2 47C103.2 48.6 103.4 49.9 104.6 49.9C105.8 49.9 106 48.5 106 47Z" fill="#0099A8"/>
<path d="M108.3 43.3H109.4V44.2C109.7 43.5 110.5 43.2 111.2 43.2C113.1 43.2 113.1 44.6 113.1 45.5V50.6H112V45.6C112 45 112 44.1 110.9 44.1C110.3 44.1 109.5 44.5 109.5 45.6V50.6H108.4V43.3" fill="#0099A8"/>
<path d="M118.2 41.2H119.3V43.3H120.6V44.2H119.3V48.9C119.3 49.5 119.4 49.7 120 49.7C120.3 49.7 120.4 49.7 120.5 49.7V50.6C120.4 50.6 120.1 50.7 119.6 50.7C118.4 50.7 118.1 50.2 118.1 49.3V44.3H117V43.4H118.1V41.2" fill="#0099A8"/>
<path d="M122.3 47.1C122.3 48.2 122.3 49.9 123.7 49.9C124.8 49.9 124.9 48.8 124.9 48.2H126C126 49 125.6 50.8 123.6 50.8C121.8 50.8 121.1 49.6 121.1 47.1C121.1 45.3 121.5 43.2 123.7 43.2C125.9 43.2 126.1 45.1 126.1 46.7V47.2H122.3M124.9 46.2V45.8C124.9 45 124.7 44 123.6 44C122.4 44 122.3 45.5 122.3 45.9V46.2H124.9Z" fill="#0099A8"/>
<path d="M130.8 45.6C130.8 44.9 130.5 44.1 129.6 44.1C128.9 44.1 128.2 44.5 128.2 47.1C128.2 48 128.2 49.9 129.6 49.9C130.6 49.9 130.8 48.9 130.8 48.1H131.9C131.9 49.2 131.3 50.8 129.5 50.8C127.7 50.8 127 49.6 127 47.1C127 45.3 127.4 43.2 129.6 43.2C131.6 43.2 131.9 44.8 131.9 45.6H130.8Z" fill="#0099A8"/>
<path d="M133.1 40.9H134.2V44.1C134.5 43.5 135.3 43.1 135.9 43.1C137.8 43.1 137.8 44.5 137.8 45.4V50.5H136.7V45.5C136.7 44.9 136.7 44 135.6 44C135 44 134.2 44.4 134.2 45.5V50.5H133.1V40.9Z" fill="#0099A8"/>
<path d="M139.4 43.3H140.5V44.2C140.8 43.5 141.6 43.2 142.3 43.2C144.2 43.2 144.2 44.6 144.2 45.5V50.6H143V45.6C143 45 143 44.1 141.9 44.1C141.3 44.1 140.5 44.5 140.5 45.6V50.6H139.4V43.3Z" fill="#0099A8"/>
<path d="M147.9 43.2C150 43.2 150.5 45 150.5 47C150.5 49 150 50.8 147.9 50.8C145.8 50.8 145.3 49 145.3 47C145.3 44.9 145.8 43.2 147.9 43.2ZM149.3 47C149.3 45.4 149.1 44.1 147.9 44.1C146.8 44.1 146.5 45.5 146.5 47C146.5 48.6 146.7 49.9 147.9 49.9C149.1 49.9 149.3 48.5 149.3 47Z" fill="#0099A8"/>
<path d="M152.8 40.9H151.7V50.6H152.8V40.9Z" fill="#0099A8"/>
<path d="M156.7 43.2C158.8 43.2 159.3 45 159.3 47C159.3 49 158.8 50.8 156.7 50.8C154.6 50.8 154.1 49 154.1 47C154 44.9 154.6 43.2 156.7 43.2ZM158.1 47C158.1 45.4 157.9 44.1 156.7 44.1C155.5 44.1 155.3 45.5 155.3 47C155.3 48.6 155.5 49.9 156.7 49.9C157.8 49.9 158.1 48.5 158.1 47Z" fill="#0099A8"/>
<path d="M165.2 50.1C165.2 52.3 164.2 53 162.7 53C162.3 53 160.5 53 160.3 51.2H161.4C161.5 51.9 162 52.1 162.6 52.1C164.1 52.1 164 51 164 50.5V49.6C163.7 50.2 163.1 50.6 162.4 50.6C160.3 50.6 160.2 47.9 160.2 47C160.2 45 160.7 43.2 162.6 43.2C163.4 43.2 164 43.7 164.2 44.3V43.4H165.3V50.1M161.3 47C161.3 48.2 161.5 49.7 162.6 49.7C163.8 49.7 164.1 48.5 164.1 47C164.1 45.6 163.9 44.2 162.6 44.2C161.6 44.1 161.3 45.2 161.3 47Z" fill="#0099A8"/>
<path d="M166.7 40.9H167.8V42.2H166.7V40.9ZM166.7 43.3H167.8V50.6H166.7V43.3Z" fill="#0099A8"/>
<path d="M170.4 47.1C170.4 48.2 170.4 49.9 171.8 49.9C172.9 49.9 173 48.8 173 48.2H174.1C174.1 49 173.7 50.8 171.7 50.8C169.9 50.8 169.2 49.6 169.2 47.1C169.2 45.3 169.6 43.2 171.8 43.2C174 43.2 174.2 45.1 174.2 46.7V47.2H170.4M173 46.2V45.8C173 45 172.8 44 171.7 44C170.5 44 170.4 45.5 170.4 45.9V46.2H173Z" fill="#0099A8"/>
<path d="M178.5 45.5C178.5 44.6 178.3 44.1 177.4 44.1C177 44.1 176.2 44.2 176.2 45.2C176.2 46.1 177.1 46.2 178 46.5C178.9 46.8 179.8 47.1 179.8 48.5C179.8 50 178.8 50.8 177.5 50.8C175 50.8 175 49 175 48.2H176.1C176.1 49.1 176.3 49.9 177.5 49.9C177.9 49.9 178.7 49.7 178.7 48.7C178.7 47.7 177.8 47.5 176.9 47.2C176 46.9 175.1 46.6 175.1 45.1C175.1 43.7 176.2 43.1 177.4 43.1C179.5 43.1 179.6 44.6 179.6 45.4H178.5" fill="#0099A8"/>
<path d="M182.4 49.2H181.2V50.6H182.4V49.2Z" fill="#0099A8"/>
</svg>
