<svg viewBox="0 0 64 64" xmlns="http://www.w3.org/2000/svg"><g id="_11-Turkey" data-name="11-Turkey"><rect fill="#e21743" height="62" rx="4" width="62" x="1" y="1"/><path d="m37.993 25v5l-4.993 2 4.993 2v5l3.994-4 4.992 1-2.995-4 3.016-5.075-5.013 2.075z" fill="#e9edf5"/><path d="m35 25a14.65 14.65 0 0 0 -12.5-7 14.5 14.5 0 1 0 12.5 22c-3 3-5.276 3-9 3a11 11 0 0 1 0-22 12.07 12.07 0 0 1 9 4z" fill="#e9edf5"/><path d="m41 39h-18a21.994 21.994 0 0 1 -6.136-.874 10.989 10.989 0 0 0 9.136 4.874c3.724 0 6 0 9-3a14.643 14.643 0 0 1 -12.5 7 14.489 14.489 0 0 1 -14.469-13.884 21.935 21.935 0 0 1 -7.031-16.116v42a4 4 0 0 0 4 4h54a4 4 0 0 0 4-4v-42a22 22 0 0 1 -22 22z" fill="#c7002b"/><path d="m22.5 47a14.643 14.643 0 0 0 12.5-7c-3 3-5.276 3-9 3a10.989 10.989 0 0 1 -9.136-4.874 21.953 21.953 0 0 1 -8.833-5.01 14.489 14.489 0 0 0 14.469 13.884z" fill="#dce1eb"/><path d="m59 59h-54a4 4 0 0 1 -4-4v4a4 4 0 0 0 4 4h54a4 4 0 0 0 4-4v-4a4 4 0 0 1 -4 4z" fill="#b51135"/><path d="m59 1h-54a4 4 0 0 0 -4 4v4a4 4 0 0 1 4-4h54a4 4 0 0 1 4 4v-4a4 4 0 0 0 -4-4z" fill="#ea5172"/></g></svg>