<svg width="120" height="121" viewBox="0 0 120 121" fill="none" xmlns="http://www.w3.org/2000/svg">
<path fill-rule="evenodd" clip-rule="evenodd" d="M86.7522 25.0644C87.5133 23.9792 89.01 23.7164 90.0952 24.4775C102.225 32.9848 110.593 46.5097 112.291 62.1098C112.434 63.4275 111.482 64.6119 110.164 64.7553C108.847 64.8987 107.662 63.9467 107.519 62.629C105.975 48.436 98.3649 36.1402 87.339 28.4074C86.2538 27.6463 85.9911 26.1496 86.7522 25.0644Z" fill="#007A80"/>
<path fill-rule="evenodd" clip-rule="evenodd" d="M33.5346 25.3406C34.3045 26.4195 34.0539 27.9183 32.9749 28.6882C22.0591 36.4768 14.5618 48.7713 13.1283 62.9037C12.9945 64.2224 11.817 65.183 10.4983 65.0492C9.1796 64.9155 8.219 63.738 8.35277 62.4193C9.9295 46.8754 18.1783 33.3492 30.1869 24.7809C31.2659 24.011 32.7647 24.2616 33.5346 25.3406Z" fill="#007A80"/>
<path fill-rule="evenodd" clip-rule="evenodd" d="M35.8132 111.63C36.4184 110.45 37.865 109.985 39.0443 110.59C45.4243 113.865 52.6906 115.7 60.3518 115.7C67.7415 115.7 74.6737 114.032 80.8867 110.98C82.0764 110.396 83.5146 110.887 84.0989 112.076C84.6833 113.266 84.1925 114.704 83.0028 115.289C76.1326 118.663 68.4766 120.5 60.3518 120.5C51.9196 120.5 43.9029 118.479 36.8525 114.861C35.6732 114.256 35.2079 112.809 35.8132 111.63Z" fill="#007A80"/>
<path fill-rule="evenodd" clip-rule="evenodd" d="M60.3518 5.3C52.8097 5.3 46.6584 11.4759 46.6584 19.1402C46.6584 26.8044 52.8097 32.9803 60.3518 32.9803C67.894 32.9803 74.0452 26.8045 74.0452 19.1402C74.0452 11.4759 67.894 5.3 60.3518 5.3ZM41.8584 19.1402C41.8584 8.86607 50.1177 0.5 60.3518 0.5C70.5859 0.5 78.8452 8.86607 78.8452 19.1402C78.8452 29.4142 70.5859 37.7803 60.3518 37.7803C50.1177 37.7803 41.8584 29.4142 41.8584 19.1402Z" fill="#007A80"/>
<path fill-rule="evenodd" clip-rule="evenodd" d="M18.4944 76.6865C10.9522 76.6865 4.80099 82.8623 4.80099 90.5266C4.80099 98.1909 10.9522 104.367 18.4944 104.367C26.0366 104.367 32.1878 98.1909 32.1878 90.5266C32.1878 82.8623 26.0366 76.6865 18.4944 76.6865ZM0.000976562 90.5266C0.000976562 80.2525 8.26026 71.8865 18.4944 71.8865C28.7285 71.8865 36.9878 80.2525 36.9878 90.5266C36.9878 100.801 28.7285 109.167 18.4944 109.167C8.26026 109.167 0.000976562 100.801 0.000976562 90.5266Z" fill="#007A80"/>
<path fill-rule="evenodd" clip-rule="evenodd" d="M101.508 76.6865C93.9654 76.6865 87.8142 82.8623 87.8142 90.5266C87.8142 98.1909 93.9654 104.367 101.508 104.367C109.05 104.367 115.201 98.1909 115.201 90.5266C115.201 82.8623 109.05 76.6865 101.508 76.6865ZM83.0142 90.5266C83.0142 80.2525 91.2735 71.8865 101.508 71.8865C111.742 71.8865 120.001 80.2525 120.001 90.5266C120.001 100.801 111.742 109.167 101.508 109.167C91.2734 109.167 83.0142 100.801 83.0142 90.5266Z" fill="#007A80"/>
</svg>
