<svg width="23" height="22" viewBox="0 0 23 22" fill="none" xmlns="http://www.w3.org/2000/svg">
<path d="M1.59985 20H21.3999" stroke="#33363B" stroke-width="1.35" stroke-miterlimit="10" stroke-linecap="round" stroke-linejoin="round"/>
<path d="M18.502 20.0091V15.9951" stroke="#33363B" stroke-width="1.35" stroke-miterlimit="10" stroke-linecap="round" stroke-linejoin="round"/>
<path d="M18.52 10.001C17.422 10.001 16.54 10.883 16.54 11.981V14.024C16.54 15.122 17.422 16.004 18.52 16.004C19.618 16.004 20.5001 15.122 20.5001 14.024V11.981C20.5001 10.883 19.618 10.001 18.52 10.001Z" stroke="#33363B" stroke-width="1.35" stroke-miterlimit="10" stroke-linecap="round" stroke-linejoin="round"/>
<path d="M2.58984 19.9999V5.62695C2.58984 3.81795 3.48989 2.90894 5.28089 2.90894H10.8879C12.6789 2.90894 13.5699 3.81795 13.5699 5.62695V19.9999" stroke="#33363B" stroke-width="1.35" stroke-miterlimit="10" stroke-linecap="round" stroke-linejoin="round"/>
<path d="M5.91992 7.625H10.3749" stroke="#33363B" stroke-width="1.35" stroke-miterlimit="10" stroke-linecap="round" stroke-linejoin="round"/>
<path d="M5.91992 11H10.3749" stroke="#33363B" stroke-width="1.35" stroke-miterlimit="10" stroke-linecap="round" stroke-linejoin="round"/>
<path d="M8.125 20V16.625" stroke="#33363B" stroke-width="1.35" stroke-miterlimit="10" stroke-linecap="round" stroke-linejoin="round"/>
</svg>
