<svg width="23" height="22" viewBox="0 0 23 22" fill="none" xmlns="http://www.w3.org/2000/svg">
<path d="M20.473 16.697C20.473 17.021 20.401 17.354 20.248 17.678C20.095 18.002 19.897 18.308 19.636 18.596C19.195 19.082 18.709 19.433 18.16 19.658C17.62 19.883 17.035 20 16.405 20C15.487 20 14.506 19.784 13.471 19.343C12.436 18.902 11.401 18.308 10.375 17.561C9.34 16.805 8.359 15.968 7.423 15.041C6.496 14.105 5.659 13.124 4.912 12.098C4.174 11.072 3.58 10.046 3.148 9.029C2.716 8.003 2.5 7.022 2.5 6.086C2.5 5.474 2.608 4.889 2.824 4.349C3.04 3.8 3.382 3.296 3.859 2.846C4.435 2.279 5.065 2 5.731 2C5.983 2 6.235 2.054 6.46 2.162C6.694 2.27 6.901 2.432 7.063 2.666L9.151 5.609C9.313 5.834 9.43 6.041 9.511 6.239C9.592 6.428 9.637 6.617 9.637 6.788C9.637 7.004 9.574 7.22 9.448 7.427C9.331 7.634 9.16 7.85 8.944 8.066L8.26 8.777C8.161 8.876 8.116 8.993 8.116 9.137C8.116 9.209 8.125 9.272 8.143 9.344C8.17 9.416 8.197 9.47 8.215 9.524C8.377 9.821 8.656 10.208 9.052 10.676C9.457 11.144 9.889 11.621 10.357 12.098C10.843 12.575 11.311 13.016 11.788 13.421C12.256 13.817 12.643 14.087 12.949 14.249C12.994 14.267 13.048 14.294 13.111 14.321C13.183 14.348 13.255 14.357 13.336 14.357C13.489 14.357 13.606 14.303 13.705 14.204L14.389 13.529C14.614 13.304 14.83 13.133 15.037 13.025C15.244 12.899 15.451 12.836 15.676 12.836C15.847 12.836 16.027 12.872 16.225 12.953C16.423 13.034 16.63 13.151 16.855 13.304L19.834 15.419C20.068 15.581 20.23 15.77 20.329 15.995C20.419 16.22 20.473 16.445 20.473 16.697Z" stroke="#33363B" stroke-width="1.35" stroke-miterlimit="10"/>
</svg>
