<svg width="49" height="47" viewBox="0 0 49 47" fill="none" xmlns="http://www.w3.org/2000/svg">
<path fill-rule="evenodd" clip-rule="evenodd" d="M9.46785 33.2615C9.3771 33.1764 9.25789 33.1291 9.13412 33.1291C9.01034 33.1291 8.89113 33.1764 8.80038 33.2615C8.6875 33.3657 6.13048 35.852 6.17956 38.3333C6.20461 39.1395 6.53491 39.9051 7.10224 40.4722C7.37715 40.7609 7.70627 40.9913 8.07034 41.1498C8.43441 41.3083 8.82609 41.3917 9.22246 41.3952H9.27644C9.6811 41.3854 10.0795 41.2924 10.4474 41.1217C10.8154 40.9511 11.145 40.7064 11.4163 40.4027C11.9656 39.8134 12.2712 39.0339 12.2703 38.2241C12.2212 35.8271 9.58074 33.3657 9.46785 33.2615ZM10.6997 39.7129C10.5169 39.9179 10.2947 40.083 10.0466 40.1982C9.79847 40.3134 9.52974 40.3762 9.25681 40.3828C8.98176 40.3887 8.70856 40.3361 8.45491 40.2284C8.20126 40.1207 7.97283 39.9603 7.78444 39.7575C7.39702 39.3727 7.17041 38.8523 7.15132 38.3035C7.12187 36.7303 8.48627 35.0282 9.11448 34.3334C9.78687 35.0381 11.2249 36.7254 11.2543 38.2439C11.2632 38.7934 11.0649 39.3257 10.6997 39.7327V39.7129Z" fill="#007A80"/>
<path d="M2.47893 31.5841C3.46311 32.4738 4.63972 33.1179 5.91446 33.4649V33.4252C6.04463 33.443 6.16248 33.5123 6.2421 33.618C6.32171 33.7236 6.35657 33.8569 6.339 33.9885C6.32142 34.1201 6.25286 34.2393 6.1484 34.3198C6.04393 34.4003 5.91211 34.4355 5.78195 34.4178C5.73807 34.425 5.69332 34.425 5.64944 34.4178C4.22031 34.0324 2.90282 33.3076 1.80654 32.3037C1.75434 32.2605 1.71149 32.207 1.68066 32.1464C1.64983 32.0857 1.63169 32.0193 1.62736 31.9513C1.62303 31.8833 1.6326 31.8151 1.65549 31.751C1.67838 31.6868 1.71409 31.6282 1.76039 31.5786C1.80669 31.5291 1.86259 31.4897 1.92461 31.4629C1.98662 31.4362 2.05342 31.4227 2.12084 31.4232C2.18826 31.4237 2.25485 31.4383 2.31646 31.4659C2.37806 31.4936 2.43337 31.5338 2.47893 31.5841Z" fill="#007A80"/>
<path d="M4.90836 39.172C3.92631 38.787 3.0327 38.2026 2.28263 37.4549C2.18991 37.3721 2.06968 37.3277 1.94599 37.3307C1.8223 37.3336 1.70428 37.3837 1.61557 37.4709C1.52685 37.5581 1.47397 37.676 1.46753 37.8009C1.46108 37.9258 1.50154 38.0486 1.5808 38.1447C2.42047 38.99 3.42271 39.6521 4.52554 40.09C4.58488 40.1138 4.64823 40.1256 4.71204 40.1248C4.82551 40.1257 4.93579 40.0869 5.02412 40.0148C5.11246 39.9428 5.17338 39.8421 5.19652 39.7298C5.21966 39.6174 5.2036 39.5005 5.15106 39.3988C5.09852 39.2971 5.01276 39.2169 4.90836 39.172Z" fill="#007A80"/>
<path fill-rule="evenodd" clip-rule="evenodd" d="M7.03839 25.3858C7.02366 24.433 7.98561 23.6687 9.23713 23.6439C10.5034 23.6092 11.48 24.3486 11.4948 25.3014C11.5095 26.2542 10.5475 27.0433 9.29603 27.0433H9.24204C8.01997 27.0433 7.05311 26.3386 7.03839 25.3858ZM9.24204 26.0508H9.2813C9.99295 26.0408 10.5181 25.6488 10.5132 25.3213C10.5083 24.9937 9.98804 24.6364 9.29112 24.6364H9.25185C8.54021 24.6513 8.01506 25.0384 8.01997 25.3659C8.02488 25.6935 8.55002 26.0508 9.24204 26.0508Z" fill="#007A80"/>
<path fill-rule="evenodd" clip-rule="evenodd" d="M41.8207 26.1778C41.9069 26.1778 41.9915 26.2008 42.0661 26.2443C42.1421 26.2863 42.2058 26.348 42.2506 26.4229C42.2954 26.4979 42.3198 26.5835 42.3213 26.6711V29.0929C42.3212 29.1808 42.2979 29.2671 42.254 29.343C42.21 29.4188 42.1468 29.4815 42.071 29.5246L39.995 30.7256C39.9212 30.7666 39.8387 30.7888 39.7545 30.7901C39.6664 30.79 39.58 30.7661 39.5042 30.7206C39.4295 30.6758 39.3679 30.6118 39.3256 30.5351C39.2834 30.4584 39.262 30.3717 39.2637 30.2839L39.2981 27.8423C39.2994 27.7565 39.3228 27.6726 39.3658 27.5986C39.4088 27.5247 39.47 27.4633 39.5435 27.4205L41.5753 26.2443C41.6499 26.2008 41.7346 26.1778 41.8207 26.1778ZM40.2453 29.4551L41.3299 28.805L41.3005 27.5544L40.2453 28.1648V29.4551Z" fill="#007A80"/>
<path fill-rule="evenodd" clip-rule="evenodd" d="M36.8638 29.3807C36.7892 29.3372 36.7046 29.3142 36.6184 29.3142C36.5323 29.3142 36.4476 29.3372 36.373 29.3807L34.3559 30.5519C34.2824 30.5948 34.2212 30.6562 34.1782 30.7301C34.1352 30.804 34.1118 30.888 34.1105 30.9737L34.0516 33.4253C34.0499 33.5131 34.0712 33.5997 34.1135 33.6765C34.1557 33.7532 34.2174 33.8172 34.2921 33.862C34.3684 33.9061 34.4545 33.93 34.5424 33.9314C34.6281 33.9301 34.7123 33.908 34.7878 33.8669L36.8638 32.666C36.9387 32.6223 37.0008 32.5593 37.0439 32.4835C37.087 32.4077 37.1095 32.3217 37.1092 32.2342V29.8075C37.1087 29.7209 37.0858 29.6359 37.0427 29.5611C36.9997 29.4862 36.938 29.424 36.8638 29.3807ZM36.1276 31.9365L35.0528 32.5618V31.2715L36.1031 30.6611L36.1276 31.9365Z" fill="#007A80"/>
<path fill-rule="evenodd" clip-rule="evenodd" d="M32.6577 37.172C32.7325 37.2149 32.8171 37.2371 32.9031 37.2365C32.9912 37.2365 33.0777 37.2125 33.1534 37.1671L43.4895 31.063C43.5627 31.0191 43.6234 30.9567 43.6656 30.8819C43.7078 30.807 43.7299 30.7224 43.73 30.6363V18.2595C43.7294 18.1726 43.7064 18.0874 43.6631 18.0124C43.6198 17.9374 43.5578 17.8752 43.4833 17.8319C43.4088 17.7887 43.3243 17.7661 43.2384 17.7662C43.1525 17.7663 43.0682 17.7893 42.9938 17.8327L32.6577 23.9169C32.5828 23.9606 32.5207 24.0236 32.4776 24.0994C32.4345 24.1752 32.412 24.2612 32.4123 24.3486V36.7552C32.4145 36.8401 32.4382 36.923 32.4812 36.996C32.5242 37.069 32.5849 37.1296 32.6577 37.172ZM38.6846 21.515L42.7484 19.123V30.3484L38.6846 32.7503V21.515ZM33.3743 24.6315L37.6834 22.0956V33.331L33.3743 35.8768V24.6315Z" fill="#007A80"/>
<path fill-rule="evenodd" clip-rule="evenodd" d="M28.8983 28.671C28.8102 28.671 28.7237 28.647 28.648 28.6016C28.5725 28.5564 28.5104 28.4916 28.4681 28.4139C28.4258 28.3362 28.4049 28.2485 28.4075 28.1599V23.361C28.4078 23.2762 28.4297 23.1929 28.4709 23.1191C28.5122 23.0452 28.5714 22.9833 28.6431 22.9392L30.7436 21.6489C30.8179 21.6032 30.9029 21.5783 30.9898 21.5766C31.0767 21.575 31.1625 21.5968 31.2384 21.6397C31.3143 21.6826 31.3775 21.7451 31.4217 21.8209C31.4658 21.8966 31.4893 21.9828 31.4896 22.0708V27.0334C31.4894 27.1232 31.4651 27.2112 31.4193 27.2881C31.3735 27.365 31.3079 27.4279 31.2295 27.4701L29.1339 28.6115C29.0615 28.651 28.9805 28.6715 28.8983 28.671ZM30.5081 22.9491L29.3891 23.6389V27.3411L30.5081 26.7257V22.9491Z" fill="#007A80"/>
<path fill-rule="evenodd" clip-rule="evenodd" d="M47.8476 8.57738L33.3742 0.0664865C33.2996 0.0229304 33.215 0 33.1288 0C33.0427 0 32.958 0.0229304 32.8834 0.0664865L12.1868 12.2448C12.1126 12.2881 12.0509 12.3502 12.0079 12.4251C11.9648 12.5 11.9419 12.5849 11.9414 12.6715V16.0263C11.0065 15.8333 10.0537 15.7435 9.0997 15.7583C4.02492 15.8526 -0.0486402 18.855 0.000438866 22.4529V40.631C0.0347942 42.4125 1.04582 44.0552 2.85684 45.2611C4.72337 46.4362 6.88659 47.0395 9.08498 46.998H9.32546C14.4051 46.9037 18.4836 43.8964 18.4198 40.2985V26.4478L22.7339 28.9589C22.7896 28.9919 22.8512 29.0135 22.9152 29.0223C22.9792 29.0312 23.0443 29.0273 23.1067 29.0107C23.1692 28.9941 23.2278 28.9652 23.2792 28.9256C23.3306 28.8861 23.3738 28.8367 23.4062 28.7802C23.4387 28.7236 23.4597 28.661 23.4682 28.5961C23.4766 28.5312 23.4723 28.4653 23.4554 28.4021C23.4385 28.3389 23.4094 28.2797 23.3698 28.2279C23.3302 28.1761 23.2809 28.1328 23.2247 28.1003L18.4345 25.2865V23.9962L22.7339 26.5222C22.8087 26.5651 22.8933 26.5873 22.9793 26.5867C23.0653 26.5876 23.15 26.5656 23.2249 26.5229C23.2999 26.4802 23.3624 26.4184 23.4062 26.3436C23.4387 26.2869 23.4597 26.2244 23.4682 26.1595C23.4766 26.0946 23.4723 26.0286 23.4554 25.9654C23.4385 25.9022 23.4094 25.843 23.3698 25.7912C23.3302 25.7395 23.2809 25.6961 23.2247 25.6637L18.4345 22.8499V22.1353C18.4279 21.9459 18.4115 21.7571 18.3855 21.5695L24.2013 24.9888V31.0829L19.6566 28.4179C19.5444 28.3586 19.4139 28.3454 19.2924 28.3811C19.1708 28.4167 19.0675 28.4985 19.0042 28.6093C18.9409 28.7201 18.9223 28.8514 18.9524 28.9757C18.9825 29.1001 19.059 29.2078 19.1658 29.2765L24.4418 32.3731C24.5164 32.4167 24.6011 32.4396 24.6872 32.4396C24.7734 32.4396 24.858 32.4167 24.9326 32.3731C25.0075 32.3294 25.0696 32.2665 25.1127 32.1907C25.1558 32.1148 25.1783 32.0288 25.178 31.9414V24.691C25.1783 24.6036 25.1558 24.5176 25.1127 24.4418C25.0696 24.3659 25.0075 24.303 24.9326 24.2593L17.983 20.18C17.4443 19.0761 16.6114 18.1463 15.5781 17.4952C14.7558 16.9612 13.8615 16.55 12.923 16.2744V12.9594L33.1288 1.06894L46.5716 8.97439L26.9007 20.5224L14.145 13.0785C14.089 13.0459 14.0271 13.0248 13.9629 13.0164C13.8988 13.008 13.8337 13.0124 13.7712 13.0295C13.7088 13.0465 13.6503 13.0758 13.5991 13.1158C13.5478 13.1557 13.5049 13.2054 13.4726 13.2621C13.4404 13.3188 13.4196 13.3814 13.4112 13.4462C13.4029 13.5111 13.4073 13.5769 13.4242 13.6401C13.441 13.7032 13.47 13.7624 13.5095 13.8142C13.549 13.866 13.5982 13.9094 13.6542 13.942L26.4148 21.3462V41.7773L19.5781 37.8568C19.4654 37.7921 19.332 37.7751 19.2069 37.8095C19.0819 37.8439 18.9753 37.927 18.9106 38.0405C18.8782 38.0971 18.8571 38.1597 18.8487 38.2246C18.8402 38.2895 18.8446 38.3554 18.8615 38.4186C18.8783 38.4818 18.9074 38.541 18.947 38.5928C18.9866 38.6446 19.036 38.6879 19.0922 38.7203L26.6651 43.0626H26.7387C26.7923 43.0854 26.8499 43.0972 26.908 43.0972C26.9662 43.0972 27.0238 43.0854 27.0774 43.0626H27.1559L47.8476 30.8149C47.9225 30.7712 47.9847 30.7082 48.0278 30.6324C48.0709 30.5566 48.0934 30.4706 48.093 30.3831V9.00417C48.0925 8.91756 48.0696 8.8326 48.0265 8.75773C47.9835 8.68286 47.9218 8.62068 47.8476 8.57738ZM17.453 28.1996C17.4922 30.4576 15.4898 32.5071 12.4125 33.4302C12.3481 33.4393 12.286 33.4612 12.2299 33.4946C12.1739 33.5279 12.1248 33.5721 12.0856 33.6247C12.0464 33.6772 12.0178 33.737 12.0015 33.8007C11.9852 33.8644 11.9814 33.9308 11.9905 33.9959C11.9995 34.0611 12.0211 34.1238 12.0541 34.1805C12.0871 34.2373 12.1308 34.2869 12.1828 34.3265C12.2347 34.3661 12.2939 34.395 12.3569 34.4115C12.4199 34.428 12.4855 34.4318 12.55 34.4227C12.5973 34.4275 12.645 34.4275 12.6923 34.4227C14.5812 33.933 16.2557 32.8228 17.453 31.2665V34.2937C17.4873 36.2093 15.9806 38.0504 13.5708 39.1025C13.4664 39.1474 13.3806 39.2276 13.3281 39.3293C13.2756 39.431 13.2595 39.5479 13.2826 39.6603C13.3058 39.7726 13.3667 39.8733 13.455 39.9454C13.5434 40.0174 13.6536 40.0562 13.7671 40.0553C13.833 40.0565 13.8984 40.0429 13.9585 40.0156C15.3463 39.4498 16.5547 38.5111 17.453 37.301V40.3481C17.5069 43.3505 13.8604 45.9211 9.32546 46.0055C7.24 46.089 5.17734 45.5413 3.40162 44.4323C1.87035 43.415 1.01638 42.0602 0.98202 40.621V25.3113C1.4946 26.0169 2.12989 26.6223 2.85684 27.0979C4.72337 28.273 6.88659 28.8763 9.08498 28.8348H9.32546C12.8788 28.7703 15.9413 27.2716 17.4382 25.1426L17.453 28.1996ZM15.0383 18.324C16.5695 19.3165 17.4235 20.7011 17.453 22.1452C17.5069 25.2022 13.8604 27.7579 9.32055 27.8423C7.23685 27.9239 5.17629 27.3763 3.40162 26.2691C2.29116 25.606 1.47043 24.5421 1.10472 23.2916C1.79182 20.6564 5.15865 18.6912 9.11442 18.6168C11.3409 18.5245 13.5373 19.1615 15.3769 20.4331C15.4285 20.4722 15.4871 20.5006 15.5496 20.5168C15.612 20.533 15.677 20.5366 15.7408 20.5273C15.8046 20.5181 15.866 20.4963 15.9214 20.4631C15.9769 20.4299 16.0253 20.386 16.064 20.3338C16.1027 20.2817 16.1308 20.2224 16.1468 20.1592C16.1628 20.0961 16.1664 20.0304 16.1572 19.9659C16.1481 19.9014 16.1265 19.8393 16.0937 19.7832C16.0609 19.7272 16.0174 19.6782 15.9659 19.6391C13.9498 18.2368 11.54 17.5302 9.09479 17.6242C5.83594 17.6441 2.94518 18.9244 1.31576 20.8351C2.29734 18.5374 5.41386 16.8203 9.11933 16.7508H9.35C11.3562 16.7112 13.3312 17.2574 15.0383 18.324ZM47.1163 30.1003L27.3915 41.7674V21.3611L47.1163 9.80811V30.1003Z" fill="#007A80"/>
</svg>
