<svg width="44" height="47" viewBox="0 0 44 47" fill="none" xmlns="http://www.w3.org/2000/svg">
<path d="M22.4474 21.9469L20.4818 23.0884L19.3614 27.002L20.6881 26.2311L19.5727 30.209L23.0812 23.4886L21.4351 24.4423L22.4474 21.9469Z" fill="#007A80"/>
<path d="M22.4474 32.6352L20.4818 33.7767L19.3614 37.6903L20.6881 36.9194L19.5727 40.8973L23.0812 34.1769L21.4351 35.1306L22.4474 32.6352Z" fill="#007A80"/>
<path d="M34.904 21.3836L38.4127 14.6583L36.7664 15.6169L37.7738 13.1166L35.8082 14.258L34.6927 18.1766L36.0195 17.4057L34.904 21.3836Z" fill="#007A80"/>
<path d="M43.9852 7.51295C43.9852 7.51295 43.9852 7.48332 43.9852 7.46849C43.9786 7.4132 43.962 7.3596 43.9362 7.31036C43.9062 7.26124 43.868 7.21775 43.8232 7.18188L43.7887 7.15223C43.7774 7.14997 43.7657 7.14997 43.7543 7.15223L31.4005 0.0662015C31.3258 0.0228313 31.2411 0 31.1548 0C31.0686 0 30.9838 0.0228313 30.9091 0.0662015L0.250619 17.717C0.174714 17.7599 0.111459 17.8223 0.0674237 17.8979C0.0233884 17.9734 0.000150053 18.0594 0 18.1469V39.4593C0.000150053 39.5469 0.0233884 39.6328 0.0674237 39.7084C0.111459 39.7839 0.174714 39.8463 0.250619 39.8892L12.6044 46.9703C12.6044 46.9703 12.6044 46.9703 12.6388 46.9703H12.6781C12.7317 46.9899 12.7882 46.9999 12.8452 47C12.9039 47.0005 12.9621 46.9905 13.0172 46.9703H13.0565C13.0565 46.9703 13.0565 46.9703 13.0909 46.9703L43.7494 29.3195C43.8253 29.2766 43.8885 29.2142 43.9326 29.1387C43.9766 29.0631 43.9999 28.9772 44 28.8896V7.55249C44 7.55249 43.9852 7.52777 43.9852 7.51295ZM28.6683 36.8898V29.0625C28.6683 28.9315 28.6165 28.8058 28.5243 28.7131C28.4322 28.6205 28.3072 28.5684 28.1769 28.5684C28.0466 28.5684 27.9216 28.6205 27.8295 28.7131C27.7373 28.8058 27.6855 28.9315 27.6855 29.0625V37.4284L13.3366 45.6905V37.4828C13.3366 37.3517 13.2848 37.226 13.1927 37.1334C13.1005 37.0407 12.9756 36.9886 12.8452 36.9886C12.7149 36.9886 12.5899 37.0407 12.4977 37.1334C12.4056 37.226 12.3538 37.3517 12.3538 37.4828V45.6905L0.982802 39.1727V18.4187L31.1548 1.04954L42.516 7.5673L28.1769 15.8047L17.8575 9.87497C17.7452 9.8159 17.6145 9.80272 17.4928 9.83824C17.3711 9.87375 17.2677 9.95518 17.2043 10.0655C17.1408 10.1759 17.1223 10.3066 17.1524 10.4304C17.1826 10.5542 17.2591 10.6615 17.3661 10.7298L27.1941 16.3729L12.8501 24.6301L2.53073 18.7004C2.47458 18.6679 2.41259 18.6469 2.34837 18.6385C2.28415 18.6302 2.21893 18.6346 2.15642 18.6516C2.0939 18.6685 2.03531 18.6978 1.98402 18.7375C1.93272 18.7772 1.88972 18.8267 1.85745 18.8832C1.82518 18.9397 1.80435 19.0019 1.79602 19.0665C1.7877 19.1311 1.7921 19.1967 1.80898 19.2596C1.82587 19.3224 1.85488 19.3813 1.8944 19.4329C1.93392 19.4845 1.98318 19.5277 2.03933 19.5602L12.3587 25.4899V35.0417L2.53073 29.3936C2.47435 29.3612 2.41212 29.3403 2.34765 29.3321C2.28318 29.324 2.21771 29.3288 2.1551 29.3463C2.09249 29.3637 2.03397 29.3935 1.98288 29.4338C1.93179 29.4742 1.88914 29.5244 1.85745 29.5814C1.79379 29.6955 1.7777 29.8302 1.8127 29.9562C1.8477 30.0822 1.93095 30.1891 2.04418 30.2534L12.6241 36.3215C12.6975 36.3634 12.7804 36.3855 12.8648 36.3858C12.9509 36.3864 13.0357 36.3642 13.1105 36.3215L28.4423 27.4961C28.5173 27.4526 28.5795 27.3899 28.6226 27.3144C28.6658 27.2389 28.6883 27.1533 28.688 27.0662V18.4236C28.688 18.2926 28.6362 18.1669 28.544 18.0742C28.4519 17.9816 28.3269 17.9295 28.1966 17.9295C28.0663 17.9295 27.9413 17.9816 27.8492 18.0742C27.757 18.1669 27.7052 18.2926 27.7052 18.4236V26.7796L13.3562 35.0417V25.4899L43.0369 8.4024V17.9542L29.6511 25.648C29.5377 25.7136 29.4549 25.8217 29.4208 25.9487C29.3867 26.0756 29.4041 26.211 29.4692 26.325C29.5344 26.439 29.642 26.5223 29.7682 26.5566C29.8945 26.5909 30.0291 26.5734 30.1425 26.5078L43.0221 19.0957V28.603L28.6683 36.8898Z" fill="#007A80"/>
<path d="M37.7738 23.8098L35.8082 24.9513L34.6927 28.8649L36.0195 28.094L34.904 32.0719L38.4127 25.3516L36.7664 26.3052L37.7738 23.8098Z" fill="#007A80"/>
<path d="M12.5452 22.0161C12.9718 22.2483 13.4509 22.3657 13.9359 22.357C14.4225 22.365 14.9029 22.2477 15.3315 22.0161C15.5377 21.9152 15.7134 21.7608 15.8404 21.5688C15.9674 21.3769 16.0411 21.1542 16.0539 20.924V18.6065C16.0401 18.3765 15.966 18.1543 15.8391 17.9625C15.7122 17.7707 15.5371 17.6161 15.3315 17.5144C14.9009 17.2904 14.4232 17.1735 13.9384 17.1735C13.4536 17.1735 12.9758 17.2904 12.5452 17.5144C12.3397 17.6161 12.1646 17.7707 12.0377 17.9625C11.9108 18.1543 11.8367 18.3765 11.8229 18.6065V20.9487C11.8389 21.1749 11.9142 21.3928 12.0411 21.5803C12.1679 21.7677 12.3419 21.9181 12.5452 22.0161ZM13.0366 18.3446C13.3178 18.208 13.6261 18.1371 13.9384 18.1371C14.2507 18.1371 14.5589 18.208 14.8401 18.3446C15.0219 18.4483 15.071 18.5472 15.071 18.5818C15.071 18.6164 15.0219 18.7152 14.8401 18.8239C14.4674 19.009 14.0472 19.0746 13.6362 19.0117C13.5717 19.0032 13.5061 19.0077 13.4433 19.0247C13.3805 19.0417 13.3215 19.0711 13.27 19.111C13.2184 19.1509 13.1752 19.2006 13.1428 19.2574C13.1103 19.3141 13.0893 19.3767 13.0809 19.4416C13.0725 19.5065 13.0769 19.5724 13.0939 19.6356C13.1108 19.6988 13.1399 19.758 13.1796 19.8098C13.2193 19.8617 13.2688 19.9051 13.3252 19.9378C13.3816 19.9704 13.4439 19.9915 13.5084 20C13.6501 20.0197 13.7929 20.0296 13.9359 20.0296C14.3249 20.0331 14.7106 19.9592 15.071 19.8122V20.9339C15.071 20.9734 15.0072 21.0723 14.8401 21.1711C14.5596 21.3101 14.2511 21.3824 13.9384 21.3824C13.6257 21.3824 13.3171 21.3101 13.0366 21.1711C12.8696 21.0723 12.8057 20.9734 12.8057 20.9339V18.6065C12.8057 18.5422 12.8696 18.4434 13.0366 18.3446Z" fill="#007A80"/>
<path d="M18.968 18.2952C19.3946 18.5274 19.8737 18.6448 20.3587 18.6361C20.8452 18.6441 21.3256 18.5267 21.7542 18.2952C21.9601 18.1945 22.1354 18.04 22.2616 17.8479C22.3878 17.6558 22.4603 17.4331 22.4716 17.2031V14.8609C22.4593 14.6312 22.3865 14.4089 22.2604 14.217C22.1343 14.025 21.9595 13.8703 21.7542 13.7688C21.3236 13.5448 20.8459 13.4279 20.3611 13.4279C19.8763 13.4279 19.3986 13.5448 18.968 13.7688C18.7611 13.8701 18.5849 14.0252 18.4579 14.2182C18.3308 14.4111 18.2576 14.6347 18.2457 14.8658V17.2031C18.2569 17.4337 18.33 17.657 18.4572 17.8492C18.5843 18.0415 18.7608 18.1956 18.968 18.2952ZM19.4594 14.6237C19.7406 14.4871 20.0488 14.4162 20.3611 14.4162C20.6734 14.4162 20.9816 14.4871 21.2628 14.6237C21.4299 14.7225 21.4888 14.8213 21.4888 14.8609C21.4888 14.9004 21.4446 14.9943 21.2628 15.103C20.9066 15.2792 20.5072 15.3479 20.113 15.3007C20.0485 15.2935 19.9831 15.2992 19.9208 15.3175C19.8585 15.3357 19.8003 15.3661 19.7496 15.4069C19.699 15.4478 19.6568 15.4983 19.6256 15.5555C19.5943 15.6127 19.5746 15.6756 19.5675 15.7405C19.5604 15.8053 19.566 15.871 19.5842 15.9337C19.6023 15.9964 19.6326 16.0548 19.6732 16.1058C19.7138 16.1567 19.764 16.1991 19.8209 16.2305C19.8778 16.262 19.9404 16.2818 20.0049 16.2889C20.1244 16.2963 20.2442 16.2963 20.3636 16.2889C20.7494 16.2927 21.1319 16.2188 21.4888 16.0715V17.1932C21.4888 17.2278 21.4446 17.3266 21.2628 17.4304C20.9815 17.5695 20.6722 17.6419 20.3587 17.6419C20.0452 17.6419 19.7358 17.5695 19.4545 17.4304C19.2776 17.3266 19.2285 17.2278 19.2285 17.1932V14.8559C19.2285 14.8263 19.2776 14.7324 19.4594 14.6237Z" fill="#007A80"/>
<path d="M27.8721 13.1709C28.3036 13.3949 28.7822 13.5118 29.2677 13.5118C29.7533 13.5118 30.2319 13.3949 30.6634 13.1709C30.8687 13.0694 31.0433 12.9147 31.1694 12.7228C31.2955 12.5308 31.3685 12.3085 31.3808 12.0788V9.7366C31.369 9.50675 31.2962 9.28428 31.17 9.09225C31.0439 8.90023 30.869 8.74566 30.6634 8.64456C30.2319 8.42052 29.7533 8.3036 29.2677 8.3036C28.7822 8.3036 28.3036 8.42052 27.8721 8.64456C27.6665 8.74566 27.4916 8.90023 27.3655 9.09225C27.2393 9.28428 27.1665 9.50675 27.1547 9.7366V12.0788C27.167 12.3085 27.24 12.5308 27.3661 12.7228C27.4922 12.9147 27.6668 13.0694 27.8721 13.1709ZM28.3635 9.49942C28.6443 9.36145 28.9528 9.28974 29.2654 9.28974C29.5779 9.28974 29.8863 9.36145 30.1671 9.49942C30.339 9.59825 30.398 9.69706 30.398 9.7366C30.398 9.77613 30.339 9.87992 30.172 9.97381C29.8043 10.1582 29.3894 10.2254 28.9827 10.1665C28.9182 10.1584 28.8527 10.1632 28.79 10.1805C28.7273 10.1978 28.6686 10.2274 28.6173 10.2676C28.5659 10.3077 28.523 10.3576 28.4908 10.4145C28.4587 10.4713 28.4379 10.534 28.4299 10.5989C28.4218 10.6638 28.4265 10.7296 28.4438 10.7927C28.461 10.8557 28.4905 10.9148 28.5304 10.9664C28.5703 11.018 28.62 11.0612 28.6765 11.0935C28.7331 11.1259 28.7953 11.1467 28.8598 11.1548C28.9941 11.1622 29.1286 11.1622 29.2628 11.1548C29.6516 11.1562 30.037 11.0823 30.398 10.9374V12.0591C30.398 12.0986 30.339 12.1974 30.172 12.2963C29.8899 12.4329 29.5808 12.5038 29.2677 12.5038C28.9547 12.5038 28.6456 12.4329 28.3635 12.2963C28.1817 12.1875 28.1375 12.0937 28.1375 12.0591V9.71684C28.1375 9.7119 28.1768 9.62294 28.3635 9.51917V9.49942Z" fill="#007A80"/>
<path d="M34.295 9.46977C34.7236 9.70135 35.2041 9.81873 35.6906 9.81073C36.1757 9.81944 36.6547 9.70199 37.0813 9.46977C37.2875 9.36892 37.4631 9.21451 37.5901 9.02252C37.7171 8.83054 37.7909 8.60792 37.8037 8.3777V6.03547C37.7909 5.80524 37.7171 5.58263 37.5901 5.39064C37.4631 5.19865 37.2875 5.04425 37.0813 4.9434C36.6507 4.7194 36.1729 4.6025 35.6881 4.6025C35.2033 4.6025 34.7256 4.7194 34.295 4.9434C34.0888 5.04425 33.9132 5.19865 33.7862 5.39064C33.6592 5.58263 33.5855 5.80524 33.5727 6.03547V8.3777C33.5855 8.60792 33.6592 8.83054 33.7862 9.02252C33.9132 9.21451 34.0888 9.36892 34.295 9.46977ZM34.7864 5.79829C35.0676 5.66174 35.3758 5.59081 35.6881 5.59081C36.0004 5.59081 36.3087 5.66174 36.5899 5.79829C36.7718 5.90206 36.8209 6.00087 36.8209 6.03547C36.8209 6.07006 36.7619 6.17876 36.5899 6.27264C36.2397 6.45106 35.8443 6.51991 35.4548 6.47031C35.3902 6.46349 35.3248 6.46961 35.2626 6.48832C35.2004 6.50703 35.1425 6.53796 35.0922 6.57931C35.042 6.62067 35.0004 6.67161 34.9698 6.72924C34.9393 6.78687 34.9203 6.85004 34.9142 6.91505C34.9018 7.04467 34.9409 7.17395 35.0228 7.27481C35.1046 7.37566 35.2228 7.43993 35.3516 7.45365C35.4661 7.46103 35.581 7.46103 35.6956 7.45365C36.0811 7.455 36.4633 7.38116 36.8209 7.23623V8.35795C36.8209 8.39254 36.7718 8.48641 36.5899 8.59513C36.3087 8.73167 36.0004 8.8026 35.6881 8.8026C35.3758 8.8026 35.0676 8.73167 34.7864 8.59513C34.6046 8.48641 34.5555 8.39254 34.5555 8.35795V6.01571C34.5653 5.99594 34.6193 5.89711 34.7864 5.79829Z" fill="#007A80"/>
</svg>
