<svg width="29" height="47" viewBox="0 0 29 47" fill="none" xmlns="http://www.w3.org/2000/svg">
<path fill-rule="evenodd" clip-rule="evenodd" d="M25.4133 21.5431C25.499 21.5431 25.5832 21.5656 25.6574 21.6085C25.7343 21.6517 25.7981 21.7149 25.842 21.7915C25.8858 21.868 25.9081 21.955 25.9065 22.0432V26.6096C25.9055 26.6954 25.882 26.7793 25.8383 26.853C25.7945 26.9267 25.7322 26.9877 25.6574 27.0297L15.03 33.1541C14.957 33.1955 14.8746 33.2173 14.7907 33.2176C14.7051 33.2182 14.6209 33.1963 14.5465 33.1541C14.472 33.1111 14.4101 33.0491 14.3673 32.9745C14.3244 32.8999 14.302 32.8153 14.3023 32.7292V28.153C14.302 28.0669 14.3244 27.9823 14.3673 27.9077C14.4101 27.8331 14.472 27.7711 14.5465 27.7281L25.1691 21.6085C25.2433 21.5656 25.3275 21.5431 25.4133 21.5431ZM15.2791 31.8941L16.9592 30.9173V27.4594L15.2791 28.4362V31.8941ZM17.936 30.3459L19.616 29.3691V25.9503L17.936 26.9271V30.3459ZM20.5928 28.8123L22.2729 27.8355V24.3972L20.5928 25.374V28.8123ZM23.2497 27.2836L24.9346 26.3068V22.8686L23.2497 23.8453V27.2836Z" fill="#007A80"/>
<path fill-rule="evenodd" clip-rule="evenodd" d="M12.8909 36.0014C12.9653 36.0436 13.0496 36.0655 13.1351 36.0649C13.2207 36.0655 13.3049 36.0436 13.3793 36.0014L27.318 27.9527C27.3919 27.9101 27.4532 27.8489 27.4961 27.7752C27.5389 27.7015 27.5617 27.6179 27.5622 27.5327V19.186C27.5626 19.1 27.5402 19.0154 27.4973 18.9407C27.4544 18.8661 27.3926 18.8042 27.318 18.7611C27.2438 18.7183 27.1596 18.6957 27.0738 18.6957C26.9881 18.6957 26.9039 18.7183 26.8296 18.7611L12.8909 26.8098C12.8164 26.8529 12.7545 26.9148 12.7117 26.9895C12.6688 27.0641 12.6464 27.1487 12.6467 27.2348V35.5765C12.6464 35.6626 12.6688 35.7472 12.7117 35.8218C12.7545 35.8964 12.8164 35.9584 12.8909 36.0014ZM13.6235 27.5131L26.5854 20.031V27.2494L13.6235 34.7414V27.5131Z" fill="#007A80"/>
<path fill-rule="evenodd" clip-rule="evenodd" d="M28.8759 15.8894C28.8735 15.8765 28.8735 15.8632 28.8759 15.8503C28.8661 15.7942 28.848 15.7399 28.8222 15.6891C28.7945 15.6448 28.7598 15.6052 28.7196 15.5719H28.6903L26.0676 13.8772L25.0957 4.8175C25.0865 4.75063 25.065 4.68605 25.0322 4.62702C25.0219 4.61016 25.0087 4.59528 24.9932 4.58307C24.9617 4.54148 24.9238 4.50521 24.8808 4.47562L17.2668 0.0654322C17.1926 0.0225668 17.1083 0 17.0226 0C16.9369 0 16.8526 0.0225668 16.7784 0.0654322L0.212113 9.62328L0.168158 9.66236C0.141458 9.68258 0.116909 9.70549 0.0948988 9.73073C0.0726538 9.75351 0.0544822 9.77994 0.0411753 9.80887C0.0252711 9.83338 0.0121654 9.85959 0.0021039 9.88702C-0.000214689 9.92116 -0.000214689 9.95543 0.0021039 9.98958C-0.000701301 10.009 -0.000701301 10.0288 0.0021039 10.0482V42.1503C0.00261836 42.2355 0.0254293 42.3191 0.068269 42.3928C0.111109 42.4665 0.172486 42.5277 0.2463 42.5703L7.83593 46.9658L7.91896 47H8.07524C8.14622 46.9978 8.21602 46.9812 8.28036 46.9512H8.31944L24.8564 37.3933C24.9221 37.3551 24.9779 37.302 25.0194 37.2385C25.0609 37.1749 25.0871 37.1025 25.0957 37.027L25.4523 34.0039C25.4678 33.8743 25.4313 33.7439 25.3507 33.6414C25.2701 33.5388 25.152 33.4724 25.0225 33.4569C24.8929 33.4413 24.7626 33.4779 24.66 33.5585C24.5574 33.6391 24.491 33.7571 24.4755 33.8867L24.1483 36.6656L8.64666 45.6227L9.41344 39.1369L11.6063 40.2553H11.6552L11.7138 40.2797H11.8896C11.914 40.282 11.9385 40.282 11.9628 40.2797H12.0703L28.6366 30.6926C28.7104 30.6499 28.7718 30.5888 28.8146 30.5151C28.8575 30.4414 28.8803 30.3578 28.8808 30.2725V15.9284C28.8808 15.9284 28.8759 15.904 28.8759 15.8894ZM25.0518 13.843L9.42321 22.8685L8.56363 14.7172L24.1922 5.6673L25.0518 13.843ZM11.3377 39.0392L9.22785 37.9647C9.15842 37.9288 9.08138 37.91 9.00319 37.91C8.925 37.91 8.84795 37.9288 8.77853 37.9647C8.70892 38.0022 8.64945 38.056 8.60522 38.1215C8.56098 38.187 8.5333 38.2622 8.52456 38.3408L7.65034 45.7399L0.944703 41.867V10.3217L17.0226 1.04222L23.6306 4.86145L8.04594 13.8625L2.21452 10.4877C2.10183 10.423 1.96803 10.4056 1.84255 10.4395C1.71707 10.4734 1.61019 10.5558 1.54543 10.6684C1.48066 10.7811 1.46332 10.9149 1.4972 11.0404C1.53109 11.1659 1.61344 11.2728 1.72613 11.3375L7.58685 14.7172L8.52456 23.7134C8.52908 23.7806 8.54915 23.8458 8.58317 23.9039C8.61681 23.9555 8.65989 24.0002 8.71015 24.0358L11.3035 25.7158L11.3377 39.0392ZM11.8261 24.9198L9.93113 23.6939L25.5597 14.6782L27.4596 15.904L11.8261 24.9198ZM27.904 29.9893L12.3145 38.9855V25.7989L27.904 16.7782V29.9893Z" fill="#007A80"/>
</svg>
