<svg width="36" height="24" viewBox="0 0 36 24" fill="none" xmlns="http://www.w3.org/2000/svg">
<path d="M23 18.0001H19L14.55 20.96C13.89 21.4 13 20.9301 13 20.1301V18.0001C10 18.0001 8 16.0001 8 13.0001V7C8 4 10 2 13 2H23C26 2 28 4 28 7V13.0001C28 16.0001 26 18.0001 23 18.0001Z" stroke="#33363B" stroke-width="1.5" stroke-miterlimit="10" stroke-linecap="round" stroke-linejoin="round"/>
<path d="M18 11.3599V11.1499C18 10.4699 18.63 10.1099 19.26 9.81989C19.875 9.53989 20.4899 9.1799 20.4899 8.5199C20.4899 7.5999 19.38 6.85986 18 6.85986C16.62 6.85986 15.51 7.5999 15.51 8.5199" stroke="#33363B" stroke-width="1.5" stroke-linecap="round" stroke-linejoin="round"/>
<path d="M17.9933 13.75H18.0068" stroke="#33363B" stroke-width="1.5" stroke-linecap="round" stroke-linejoin="round"/>
</svg>
