<svg width="226" height="226" viewBox="0 0 226 226" fill="none" xmlns="http://www.w3.org/2000/svg">
<path d="M154.622 74.8624C177.598 97.8391 177.598 135.129 154.622 158.105C131.645 181.082 94.3547 181.082 71.378 158.105C48.4013 135.129 48.4013 97.8391 71.378 74.8624C94.3547 51.8858 131.645 51.8858 154.622 74.8624Z" stroke="#007A80" stroke-width="6.3662" stroke-linecap="round" stroke-linejoin="round"/>
<path d="M77.6862 203.777C58.8529 196.243 42.3737 182.589 31.4504 163.662C20.7154 145.111 17.137 124.488 19.6795 104.808" stroke="#007A80" stroke-width="6.3662" stroke-linecap="round" stroke-linejoin="round"/>
<path d="M55.082 42.1865C71.0904 29.6623 91.1478 22.2232 112.994 22.2232C134.37 22.2232 154.051 29.4739 169.871 41.5273" stroke="#007A80" stroke-width="6.3662" stroke-linecap="round" stroke-linejoin="round"/>
<path d="M65 58.0001C78.1091 47.9623 94.534 42.0001 112.424 42.0001C129.929 42.0001 146.045 47.8113 159 57.4717" stroke="#007A80" stroke-width="6.3662" stroke-linecap="round" stroke-linejoin="round"/>
<path d="M85.4453 187.632C70.1978 181.298 56.8219 170.055 47.8768 154.562C39.1246 139.403 36.099 122.54 37.9877 106.49" stroke="#007A80" stroke-width="6.3662" stroke-linecap="round" stroke-linejoin="round"/>
<path d="M140 187.632C155.248 181.298 168.623 170.055 177.568 154.562C186.321 139.403 189.346 122.54 187.458 106.49" stroke="#007A80" stroke-width="6.3662" stroke-linecap="round" stroke-linejoin="round"/>
<path d="M148.311 203.777C167.144 196.243 183.623 182.589 194.546 163.662C205.281 145.111 208.86 124.488 206.317 104.808" stroke="#007A80" stroke-width="6.3662" stroke-linecap="round" stroke-linejoin="round"/>
</svg>
