<svg width="148" height="166" viewBox="0 0 148 166" fill="none" xmlns="http://www.w3.org/2000/svg">
<path fill-rule="evenodd" clip-rule="evenodd" d="M72.6605 0.316718C73.5038 -0.105573 74.4963 -0.105573 75.3395 0.316719L93.0707 9.19672C94.5503 9.93769 95.15 11.7397 94.4102 13.2216C93.6704 14.7036 91.8713 15.3043 90.3918 14.5633L74 6.3541L57.6082 14.5633C56.1287 15.3043 54.3296 14.7036 53.5898 13.2216C52.85 11.7397 53.4497 9.93769 54.9293 9.19672L72.6605 0.316718ZM23.4053 28.2984C24.1451 29.7803 23.5454 31.5823 22.0659 32.3233L9.69249 38.52L22.0659 44.7167C23.5454 45.4577 24.1451 47.2597 23.4053 48.7417C22.6656 50.2236 20.8665 50.8243 19.3869 50.0833L5.99029 43.3741V60.76C5.99029 62.4169 4.64932 63.76 2.99514 63.76C1.34097 63.76 0 62.4169 0 60.76V38.52C0 37.3837 0.640968 36.3449 1.65567 35.8367L19.3869 26.9567C20.8665 26.2158 22.6656 26.8164 23.4053 28.2984ZM124.595 28.2984C125.334 26.8164 127.134 26.2158 128.613 26.9567L146.344 35.8367C147.359 36.3449 148 37.3837 148 38.52V60.76C148 62.4169 146.659 63.76 145.005 63.76C143.351 63.76 142.01 62.4169 142.01 60.76V43.3741L128.613 50.0833C127.134 50.8243 125.334 50.2236 124.595 48.7417C123.855 47.2597 124.455 45.4577 125.934 44.7167L138.308 38.52L125.934 32.3233C124.455 31.5823 123.855 29.7803 124.595 28.2984ZM53.5898 63.8983C54.3296 62.4164 56.1287 61.8157 57.6082 62.5567L74 70.7659L90.3918 62.5567C91.8713 61.8157 93.6704 62.4164 94.4102 63.8983C95.15 65.3803 94.5503 67.1823 93.0707 67.9233L76.9951 75.9741V96.36C76.9951 98.0168 75.6542 99.36 74 99.36C72.3458 99.36 71.0049 98.0168 71.0049 96.36V75.9741L54.9293 67.9233C53.4497 67.1823 52.85 65.3803 53.5898 63.8983ZM2.99514 102.24C4.64932 102.24 5.99029 103.583 5.99029 105.24V125.626L22.0659 133.677C23.5454 134.418 24.1451 136.22 23.4053 137.702C22.6656 139.184 20.8665 139.784 19.3869 139.043L1.65568 130.163C0.640968 129.655 0 128.616 0 127.48V105.24C0 103.583 1.34097 102.24 2.99514 102.24ZM145.005 102.24C146.659 102.24 148 103.583 148 105.24V127.48C148 128.616 147.359 129.655 146.344 130.163L128.613 139.043C127.134 139.784 125.334 139.184 124.595 137.702C123.855 136.22 124.455 134.418 125.934 133.677L142.01 125.626V105.24C142.01 103.583 143.351 102.24 145.005 102.24ZM74 137.76C75.6542 137.76 76.9951 139.103 76.9951 140.76V158.146L90.3918 151.437C91.8713 150.696 93.6704 151.296 94.4102 152.778C95.15 154.26 94.5503 156.062 93.0707 156.803L75.3395 165.683C74.4963 166.106 73.5038 166.106 72.6605 165.683L54.9293 156.803C53.4497 156.062 52.85 154.26 53.5898 152.778C54.3296 151.296 56.1287 150.696 57.6082 151.437L71.0049 158.146V140.76C71.0049 139.103 72.3458 137.76 74 137.76Z" fill="#007A80"/>
</svg>
