<svg width="47" height="47" viewBox="0 0 47 47" fill="none" xmlns="http://www.w3.org/2000/svg">
<path fill-rule="evenodd" clip-rule="evenodd" d="M43.5245 28.8889C43.6169 28.7965 43.7422 28.7446 43.8728 28.7446C44.0009 28.7497 44.1219 28.8045 44.2102 28.8974C44.2985 28.9903 44.3471 29.114 44.3457 29.2421V31.3011C44.3452 31.3871 44.3222 31.4714 44.279 31.5458C44.2358 31.6201 44.1739 31.6818 44.0994 31.7248L17.7866 46.936C17.7115 46.9785 17.6266 47.0006 17.5403 47C17.4096 47 17.2844 46.9481 17.192 46.8557C17.0996 46.7633 17.0477 46.638 17.0477 46.5074V45.6601L0.241381 35.8083C0.167129 35.7643 0.105749 35.7016 0.0633894 35.6263C0.0210297 35.5511 -0.00082203 35.4661 2.36458e-05 35.3798L0.0492803 15.2131C0.0497991 15.1272 0.0728045 15.0428 0.11601 14.9685C0.159216 14.8942 0.221118 14.8325 0.295563 14.7895L26.0715 0.0659946C26.1464 0.0227607 26.2313 0 26.3178 0C26.4043 0 26.4892 0.0227607 26.5641 0.0659946L43.9418 9.75032C44.0008 9.78376 44.0522 9.82903 44.0929 9.88327C44.1336 9.93752 44.1626 9.99958 44.1782 10.0656C44.2295 10.1106 44.2709 10.1659 44.2998 10.2278C44.3286 10.2897 44.3442 10.3569 44.3457 10.4252L44.4097 16.883C44.4097 17.0137 44.3578 17.139 44.2655 17.2313C44.1731 17.3237 44.0478 17.3756 43.9172 17.3756C43.7865 17.3756 43.6612 17.3237 43.5689 17.2313C43.4765 17.139 43.4246 17.0137 43.4246 16.883L43.3753 11.2626L18.0328 25.6216V45.6601L43.3803 31.0105V29.2372C43.3803 29.1065 43.4322 28.9813 43.5245 28.8889ZM2.19194 15.7648L17.5452 24.7694L43.001 10.3414L26.3277 1.06103L1.02949 15.5038L0.985155 35.099L17.0477 44.4976V25.6166L1.69937 16.6121C1.63657 16.5837 1.58042 16.5425 1.53456 16.491C1.48869 16.4396 1.45414 16.3791 1.43312 16.3134C1.41211 16.2478 1.4051 16.1785 1.41256 16.1099C1.42001 16.0414 1.44176 15.9752 1.47641 15.9156C1.51105 15.8561 1.55781 15.8044 1.61366 15.764C1.66952 15.7236 1.73322 15.6954 1.80066 15.6812C1.8681 15.667 1.93778 15.6671 2.00518 15.6815C2.07257 15.6959 2.1362 15.7243 2.19194 15.7648Z" fill="#007A80"/>
<path fill-rule="evenodd" clip-rule="evenodd" d="M44.4098 18.0751L46.4047 21.8779C46.45 21.9472 46.4771 22.0268 46.4835 22.1094V26.188C46.4837 26.2658 46.4655 26.3424 46.4304 26.4118C46.3953 26.4811 46.3443 26.5412 46.2816 26.587L44.267 28.0648L42.7893 28.9712C42.7109 29.0197 42.6204 29.0454 42.5282 29.0451H42.4149C42.3286 29.0457 42.2437 29.0236 42.1686 28.981L40.3757 27.9466C40.3005 27.9032 40.2382 27.8407 40.1949 27.7654C40.1517 27.6902 40.1291 27.6048 40.1294 27.518V25.5477C40.1299 25.4617 40.1529 25.3774 40.1962 25.3031C40.2394 25.2287 40.3013 25.167 40.3757 25.124L41.3608 24.5576C41.4171 24.5252 41.4792 24.5043 41.5436 24.4959C41.6079 24.4876 41.6733 24.492 41.736 24.5089C41.7987 24.5258 41.8574 24.5549 41.9088 24.5946C41.9602 24.6342 42.0033 24.6835 42.0357 24.7398C42.068 24.7961 42.0889 24.8582 42.0973 24.9226C42.1056 24.9869 42.1012 25.0523 42.0843 25.115C42.0674 25.1777 42.0383 25.2364 41.9986 25.2878C41.959 25.3392 41.9097 25.3823 41.8534 25.4147L41.617 25.5477L42.0603 25.8038L42.4445 25.5575V22.6611L41.7106 21.3409L40.3856 20.5725C40.3111 20.5295 40.2492 20.4678 40.206 20.3935C40.1628 20.3192 40.1398 20.2348 40.1393 20.1489V18.1785C40.1318 18.1361 40.1318 18.0928 40.1393 18.0504C40.1551 17.9966 40.1783 17.9452 40.2082 17.8977L40.2378 17.8633C40.2735 17.8183 40.3169 17.78 40.3659 17.75L41.9371 16.8436H41.9962C42.0256 16.8286 42.0572 16.8186 42.0898 16.814C42.1209 16.8095 42.1524 16.8095 42.1834 16.814C42.2144 16.8089 42.246 16.8089 42.277 16.814C42.3096 16.8186 42.3413 16.8286 42.3706 16.8436H42.4297L44.2226 17.878C44.3023 17.9249 44.3671 17.9931 44.4098 18.0751ZM44.9024 26.3801L45.4738 25.9565L45.4639 22.2522L43.5725 18.6908L42.1489 17.8682L41.5628 18.2081L42.6169 18.814C42.7241 18.8821 42.8008 18.9891 42.8311 19.1125C42.8613 19.2359 42.8427 19.3662 42.7791 19.4762C42.7155 19.5862 42.6119 19.6673 42.4899 19.7027C42.3679 19.7381 42.2369 19.725 42.1243 19.6661L41.0702 19.0603V19.878L42.2672 20.5676C42.3446 20.6129 42.4091 20.6773 42.4543 20.7548L43.3163 22.3064C43.3563 22.3805 43.3767 22.4636 43.3754 22.5478V25.8531C43.3758 25.935 43.3558 26.0158 43.3171 26.0881C43.2784 26.1603 43.2222 26.2218 43.1538 26.2668L42.2918 26.8235C42.2169 26.8667 42.132 26.8895 42.0455 26.8895C41.959 26.8895 41.8741 26.8667 41.7992 26.8235L41.0948 26.4195V27.2471L42.3607 27.9761L43.9173 26.8432V23.001C43.9173 22.8703 43.9691 22.745 44.0615 22.6527C44.1539 22.5603 44.2792 22.5084 44.4098 22.5084C44.5405 22.5084 44.6657 22.5603 44.7581 22.6527C44.8505 22.745 44.9024 22.8703 44.9024 23.001V26.3801Z" fill="#007A80"/>
<path fill-rule="evenodd" clip-rule="evenodd" d="M42.4395 15.4151V12.5088L39.3462 14.3511V17.2229L42.4395 15.4151ZM40.3313 14.9225L41.4544 14.2427V14.8535L40.3313 15.5087V14.9225Z" fill="#007A80"/>
<path fill-rule="evenodd" clip-rule="evenodd" d="M25.4646 39.053C25.3894 39.0098 25.3269 38.9474 25.2835 38.8722C25.2509 38.816 25.2298 38.7539 25.2213 38.6895C25.2129 38.625 25.2172 38.5596 25.2342 38.4969C25.2511 38.4341 25.2803 38.3754 25.32 38.324C25.3598 38.2726 25.4093 38.2296 25.4657 38.1974L37.6962 31.2075L37.307 30.9809L25.978 37.488C25.9034 37.5323 25.8185 37.5561 25.7317 37.557C25.6227 37.5578 25.5164 37.5223 25.4297 37.4562C25.343 37.3901 25.2806 37.297 25.2524 37.1917C25.2243 37.0863 25.2319 36.9746 25.274 36.874C25.3162 36.7734 25.3906 36.6896 25.4854 36.6359V32.109L24.5939 32.6016V38.5816C24.5933 38.6585 24.5748 38.7342 24.5397 38.8026C24.5046 38.871 24.454 38.9303 24.392 38.9757L22.3724 40.4534L20.8947 41.3598C20.8174 41.4108 20.7262 41.4366 20.6337 41.4337H20.5204C20.4341 41.4343 20.3492 41.4122 20.2741 41.3697L18.4565 40.3254C18.3821 40.2824 18.3202 40.2207 18.277 40.1464C18.2338 40.072 18.2108 39.9877 18.2103 39.9017V37.9314C18.2099 37.8446 18.2325 37.7592 18.2758 37.684C18.319 37.6087 18.3814 37.5462 18.4565 37.5028L19.417 36.9462C19.4733 36.9136 19.5354 36.8925 19.5998 36.884C19.6642 36.8756 19.7297 36.8799 19.7924 36.8969C19.8551 36.9138 19.9139 36.943 19.9653 36.9827C20.0166 37.0225 20.0597 37.072 20.0919 37.1285C20.1561 37.2416 20.173 37.3755 20.1388 37.501C20.1047 37.6265 20.0223 37.7334 19.9096 37.7984L19.688 37.9314L20.1313 38.1875L20.5155 37.9412V35.0399L19.7815 33.7197L18.5009 32.9464C18.4264 32.9034 18.3645 32.8417 18.3213 32.7673C18.2781 32.693 18.2551 32.6087 18.2546 32.5227V30.5524C18.2497 30.5098 18.2497 30.4669 18.2546 30.4243C18.2722 30.3703 18.297 30.3189 18.3285 30.2716V30.242C18.3653 30.1949 18.4103 30.1548 18.4615 30.1238L20.0327 29.2175C20.0507 29.2146 20.069 29.2146 20.0869 29.2175C20.1181 29.2016 20.1512 29.1901 20.1854 29.183H20.3726L20.4662 29.2125H20.5253L21.6533 29.8677V27.188C21.6538 27.102 21.6768 27.0177 21.72 26.9434C21.7632 26.8691 21.8251 26.8073 21.8996 26.7644L38.3808 17.1588C38.4557 17.1156 38.5406 17.0929 38.6271 17.0929C38.7136 17.0929 38.7985 17.1156 38.8734 17.1588C38.9478 17.2018 39.0097 17.2635 39.0529 17.3379C39.0961 17.4122 39.1191 17.4965 39.1197 17.5825L39.1394 31.2026C39.1418 31.2156 39.1418 31.229 39.1394 31.242C39.1418 31.2567 39.1418 31.2717 39.1394 31.2863C39.1305 31.3409 39.1139 31.394 39.0901 31.444C39.0698 31.4783 39.045 31.5098 39.0162 31.5376C38.9872 31.5649 38.9559 31.5896 38.9226 31.6114L25.9534 39.0496C25.8802 39.093 25.7971 39.1168 25.712 39.1185C25.6252 39.1189 25.5399 39.0963 25.4646 39.053ZM23.5989 32.0301V26.9121L22.6532 27.4688V30.7051L23.4117 32.1385L23.5989 32.0301ZM23.0177 38.7639L23.5989 38.3205V34.5768L22.8847 33.2321C22.8267 33.192 22.778 33.1399 22.7419 33.0794C22.7057 33.0091 22.6855 32.9317 22.6828 32.8528L21.806 31.2371C21.7478 31.178 21.7054 31.1051 21.6828 31.0253L20.2741 30.2076L19.7175 30.5475L20.7667 31.1533C20.8231 31.1855 20.8726 31.2285 20.9124 31.2799C20.9521 31.3313 20.9813 31.3901 20.9982 31.4528C21.0152 31.5156 21.0195 31.581 21.0111 31.6454C21.0026 31.7099 20.9815 31.772 20.9489 31.8282C20.9163 31.8842 20.873 31.9333 20.8214 31.9725C20.7698 32.0118 20.711 32.0405 20.6483 32.0569C20.5856 32.0734 20.5203 32.0774 20.4561 32.0685C20.3919 32.0597 20.33 32.0383 20.2741 32.0055L19.1905 31.3996V32.242L20.3874 32.9365C20.4656 32.9792 20.5291 33.0444 20.5696 33.1237L21.4316 34.6704C21.4724 34.7445 21.4944 34.8273 21.4957 34.9118V38.2023C21.4955 38.2847 21.4747 38.3658 21.4351 38.4381C21.3955 38.5104 21.3385 38.5716 21.2691 38.6161L20.4071 39.1727C20.3322 39.2159 20.2473 39.2387 20.1608 39.2387C20.0744 39.2387 19.9894 39.2159 19.9145 39.1727L19.2102 38.7639V39.6259L20.4761 40.3549L22.0326 39.222V35.3798C22.0326 35.2491 22.0845 35.1238 22.1768 35.0314C22.2692 34.9391 22.3945 34.8872 22.5251 34.8872C22.6558 34.8872 22.7811 34.9391 22.8734 35.0314C22.9658 35.1238 23.0177 35.2491 23.0177 35.3798V38.7639ZM24.5791 31.4243L25.4707 30.9317V25.8137L24.5791 26.3358V31.4243ZM36.7603 19.2327L35.849 19.7647L35.8293 24.996L36.7603 24.459V19.2327ZM26.4607 36.0201L27.3523 35.5275V31.0302L26.4607 31.5228V36.0201ZM26.4607 30.3553L27.3523 29.8628V24.7201L26.4607 25.2423V30.3553ZM28.3374 34.9414L29.2289 34.4488V29.9514L28.3374 30.444V34.9414ZM28.3374 29.2766L29.2289 28.784V23.6512L28.3374 24.1438V29.2766ZM30.219 33.8724L31.1105 33.3798V28.8726L30.219 29.3652V33.8724ZM30.219 28.2126L31.1105 27.72V22.5084L30.219 23.0502V28.2126ZM32.0957 32.7986L32.9872 32.306V27.7742L32.0957 28.2668V32.7986ZM32.0957 27.1338L32.9872 26.6412V21.4345L32.0957 21.9567V27.1338ZM33.9724 31.7198L34.8688 31.2272V26.72L33.9724 27.2126V31.7198ZM33.9724 26.055L34.8688 25.5624V20.3361L33.9724 20.8582V26.055ZM35.854 26.1338V30.6607L36.7898 30.109V25.592L35.854 26.1338ZM38.1887 30.3356L38.1444 18.4248L37.7454 18.6563L37.7947 30.109L38.1887 30.3356Z" fill="#007A80"/>
</svg>
