<svg width="38" height="47" viewBox="0 0 38 47" fill="none" xmlns="http://www.w3.org/2000/svg">
<path fill-rule="evenodd" clip-rule="evenodd" d="M37.2261 4.38179C37.3421 4.39551 37.4506 4.4466 37.5354 4.52744C37.6214 4.60974 37.6781 4.7182 37.6966 4.83608C37.7152 4.95397 37.6947 5.07475 37.6381 5.17973L27.6896 24.2045C27.6436 24.2913 27.575 24.3639 27.4912 24.4147C27.4073 24.4654 27.3114 24.4923 27.2135 24.4926C27.1449 24.4936 27.0768 24.4807 27.0133 24.4546C26.8894 24.4046 26.7882 24.3103 26.7293 24.1899C26.6704 24.0695 26.6579 23.9314 26.6942 23.8023L29.4964 13.8224L26.8835 15.339C26.7904 15.3923 26.6836 15.4167 26.5767 15.4089C26.4698 15.4012 26.3676 15.3617 26.283 15.2955C26.198 15.2292 26.1346 15.139 26.1009 15.0364C26.0672 14.9338 26.0647 14.8234 26.0937 14.7193L29.2638 3.63054C29.3023 3.49532 29.3915 3.38038 29.5127 3.30986L35.0847 0.0756323C35.1827 0.0174379 35.2965 -0.00822557 35.4098 0.0023119C35.5232 0.0128494 35.6303 0.0590496 35.716 0.134322C35.8017 0.209594 35.8616 0.310111 35.8872 0.421565C35.9127 0.533019 35.9026 0.649732 35.8583 0.75509L33.5862 6.35926L36.8916 4.45133C36.9927 4.39246 37.11 4.36808 37.2261 4.38179ZM30.903 12.8386L29.1394 19.095L35.8151 6.35381L32.7585 8.12584C32.6614 8.18177 32.5494 8.20606 32.438 8.19535C32.3266 8.18464 32.2212 8.13947 32.1364 8.06606C32.0503 7.99133 31.9898 7.89123 31.9636 7.77998C31.9374 7.66873 31.9467 7.55199 31.9903 7.44639L34.2895 1.81505L30.27 4.14694L27.5056 13.73L30.1077 12.2189C30.2011 12.1633 30.3089 12.1372 30.4173 12.144C30.5256 12.1508 30.6294 12.1901 30.7151 12.2569C30.8009 12.3238 30.8647 12.415 30.8982 12.5187C30.9317 12.6224 30.9333 12.7339 30.903 12.8386Z" fill="#007A80"/>
<path d="M3.00996 11.0122C2.95251 11.616 3.0355 12.2249 3.25237 12.7909C3.46924 13.3569 3.81406 13.8645 4.25962 14.2736C4.36098 14.3749 4.49809 14.4317 4.64101 14.4317C4.78393 14.4317 4.92104 14.3749 5.0224 14.2736C5.0731 14.2231 5.11335 14.163 5.14081 14.0967C5.16828 14.0305 5.18242 13.9595 5.18242 13.8877C5.18242 13.8159 5.16828 13.7449 5.14081 13.6787C5.11335 13.6124 5.0731 13.5523 5.0224 13.5018C4.68997 13.2108 4.43087 12.8448 4.26631 12.4338C4.10176 12.0228 4.03644 11.5785 4.07569 11.1373C4.21093 10.148 4.98453 9.19673 6.2396 8.46292C9.40431 6.63654 14.5761 6.64741 17.7678 8.46292C19.2176 9.29458 20.0129 10.3708 20.0129 11.4851C20.0129 12.5995 19.2285 13.6594 17.8057 14.4693C15.6418 15.6978 12.5257 16.1326 9.59906 15.6054C9.52802 15.5925 9.45516 15.5939 9.38463 15.6093C9.3141 15.6247 9.24729 15.654 9.18801 15.6954C9.12873 15.7368 9.07816 15.7895 9.03916 15.8505C9.00016 15.9116 8.9735 15.9797 8.96071 16.0511C8.94793 16.1225 8.94925 16.1957 8.96462 16.2666C8.98 16.3374 9.00912 16.4046 9.05031 16.4641C9.0915 16.5237 9.14396 16.5745 9.2047 16.6137C9.26544 16.6529 9.33327 16.6797 9.40431 16.6925C10.2866 16.849 11.1808 16.9272 12.0767 16.9262C14.2644 16.9802 16.4297 16.4732 18.3683 15.4532C20.1427 14.4313 21.1165 13.0398 21.1165 11.5286C21.1165 10.0175 20.1265 8.59883 18.3304 7.56062C14.8411 5.55486 9.18792 5.54398 5.72026 7.56062C4.15683 8.44663 3.18849 9.68051 3.00996 11.0122Z" fill="#007A80"/>
<path fill-rule="evenodd" clip-rule="evenodd" d="M19.937 20.242C19.8548 20.1943 19.7615 20.1691 19.6665 20.1691C19.5716 20.1691 19.4783 20.1943 19.396 20.242C17.794 21.0201 16.0698 21.513 14.3 21.6987C14.1681 21.7147 14.0466 21.779 13.9588 21.8793C13.871 21.9795 13.823 22.1087 13.824 22.2423V42.6532C13.824 42.7974 13.881 42.9356 13.9824 43.0376C14.0839 43.1395 14.2215 43.1968 14.365 43.1968H14.4245C16.3211 43 18.1687 42.4701 19.8829 41.6313C19.9721 41.5861 20.0472 41.517 20.0997 41.4316C20.1522 41.3462 20.1802 41.2479 20.1805 41.1475V20.704C20.1818 20.6127 20.1602 20.5224 20.1177 20.4417C20.0751 20.3609 20.013 20.2922 19.937 20.242ZM19.1147 30.9067C17.784 31.5187 16.3717 31.9326 14.9222 32.1352V28.0258C16.3621 27.8279 17.771 27.4461 19.1147 26.8898V30.9067ZM14.9222 33.2441C16.3631 33.0513 17.7727 32.6693 19.1147 32.108V35.5488C17.7822 36.1559 16.3706 36.5695 14.9222 36.7773V33.2441ZM14.9222 22.6935C16.3626 22.4981 17.7719 22.1163 19.1147 21.5574V25.6885C17.7831 26.2981 16.3711 26.7118 14.9222 26.917V22.6935ZM14.9222 42.0064V37.8861C16.3624 37.6925 17.7716 37.3125 19.1147 36.7555V40.7888C17.7829 41.3954 16.3708 41.8055 14.9222 42.0064Z" fill="#007A80"/>
<path fill-rule="evenodd" clip-rule="evenodd" d="M20.4401 7.15294C20.3785 7.11361 20.3097 7.08721 20.2377 7.07531C20.1657 7.06341 20.0921 7.06626 20.0212 7.0837C19.9503 7.10114 19.8837 7.13281 19.8253 7.17679C19.767 7.22078 19.7181 7.27616 19.6815 7.33963C19.645 7.40309 19.6217 7.47334 19.6129 7.54612C19.6041 7.61889 19.61 7.69268 19.6303 7.76309C19.6507 7.8335 19.685 7.89907 19.7312 7.95582C19.7774 8.01256 19.8345 8.05932 19.8991 8.0933C21.8954 9.2511 22.9989 10.7513 23.0206 12.3222V12.4201C23.0206 13.9747 21.9062 15.4532 19.9478 16.5892C15.62 19.0951 8.58731 19.0842 4.21081 16.5566C2.19837 15.388 1.08396 13.8714 1.08396 12.2788C1.08396 10.6861 2.16592 9.20761 4.16212 8.05525C4.27987 7.98003 4.36414 7.86201 4.39734 7.72583C4.43053 7.58966 4.41008 7.44588 4.34026 7.3245C4.27043 7.20312 4.15663 7.11354 4.02263 7.07448C3.88862 7.03542 3.74478 7.0499 3.62114 7.11489C1.28953 8.46837 0.00200474 10.3002 0.00200474 12.2788V39.7886C-0.000668246 39.8085 -0.000668246 39.8286 0.00200474 39.8484C0.0452829 41.8053 1.34363 43.6208 3.66442 44.9634C6.26397 46.3552 9.17489 47.0551 12.1199 46.9963C15.0301 47.0568 17.9074 46.3682 20.478 44.996C22.8096 43.6425 24.0917 41.8107 24.0917 39.8376C24.0943 39.8214 24.0943 39.8048 24.0917 39.7886V12.3712C24.1079 10.3763 22.8042 8.5336 20.4401 7.15294ZM23.0206 16.823V39.7289C23.0182 39.7469 23.0182 39.7652 23.0206 39.7832C23.0206 41.3704 21.9386 42.8815 19.9478 44.0448C15.62 46.5506 8.58731 46.5397 4.21621 44.0122C2.22001 42.8544 1.11101 41.3487 1.09478 39.7723V15.2684C1.80131 16.1717 2.68051 16.9239 3.68065 17.4807C6.28164 18.8681 9.19188 19.566 12.1361 19.5082C15.0481 19.5691 17.9272 18.8805 20.4996 17.5079C21.4784 16.9586 22.339 16.2195 23.0314 15.3336L23.0206 16.823Z" fill="#007A80"/>
<path fill-rule="evenodd" clip-rule="evenodd" d="M12.0363 7.59944C12.9645 7.59944 13.8795 7.82084 14.706 8.24546C15.0679 8.4081 15.3783 8.66749 15.6034 8.99532C15.8286 9.32314 15.9598 9.70684 15.9827 10.1045V12.0885C15.9637 12.4857 15.8366 12.87 15.6153 13.1997C15.394 13.5294 15.087 13.7918 14.7276 13.9583C13.9023 14.3868 12.9869 14.6105 12.0579 14.6105C11.129 14.6105 10.2135 14.3868 9.3882 13.9583C9.03096 13.7908 8.72447 13.5309 8.50013 13.2052C8.27578 12.8795 8.14165 12.4997 8.11149 12.1048V9.97943C8.1634 9.60925 8.305 9.25754 8.52383 8.9552C8.74267 8.65287 9.03206 8.40914 9.36656 8.24546C10.193 7.82084 11.108 7.59944 12.0363 7.59944ZM14.7439 11.9526C13.7344 12.4805 12.5907 12.6926 11.4601 12.5614H11.4547C11.3113 12.5477 11.1791 12.4773 11.0873 12.3657C10.9954 12.254 10.9515 12.1103 10.9651 11.9662C10.9788 11.822 11.0488 11.6892 11.1599 11.597C11.271 11.5047 11.414 11.4605 11.5575 11.4742C12.4646 11.581 13.383 11.4165 14.1975 11.0013C14.6519 10.7404 14.9116 10.4143 14.9116 10.099C14.9116 9.78377 14.6465 9.44676 14.1813 9.18041C13.5172 8.85554 12.7884 8.68671 12.0498 8.68671C11.3113 8.68671 10.5824 8.85554 9.91836 9.18041C9.74312 9.25722 9.58796 9.37376 9.46501 9.52087C9.34207 9.66798 9.25468 9.84167 9.20968 10.0284V12.0939C9.21509 12.4092 9.48016 12.7462 9.9454 13.0125C10.6066 13.3437 11.3353 13.5161 12.0742 13.5161C12.813 13.5161 13.5417 13.3437 14.2029 13.0125C14.6627 12.7516 14.917 12.4146 14.917 12.0939V11.8439L14.7439 11.9526Z" fill="#007A80"/>
</svg>
