<svg width="120" height="118" viewBox="0 0 120 118" fill="none" xmlns="http://www.w3.org/2000/svg">
<path fill-rule="evenodd" clip-rule="evenodd" d="M60.0062 4C54.1599 4 47.8698 8.1716 42.8871 17.5406L42.8855 17.5437L25.8124 49.5139L7.69571 83.5397C3.02019 92.3322 2.91456 99.8914 5.86496 105.132C8.8108 110.365 15.172 113.939 24.8147 113.939H60.0062C60.1699 113.939 60.3289 113.96 60.4807 114H95.1977C104.809 114 111.173 110.427 114.127 105.191C117.084 99.9492 116.991 92.3906 112.317 83.6012M112.317 83.6003L77.1253 17.5406C72.1426 8.1716 65.8526 4 60.0062 4M59.5317 117.939H24.8147C14.3065 117.939 6.3821 114.006 2.51903 107.144C-1.33949 100.29 -0.777293 91.1675 4.30324 81.6134L39.4948 15.6141C39.4952 15.6132 39.4957 15.6124 39.4962 15.6115C44.8502 5.54567 52.2064 0 60.0062 0C67.8063 0 75.1627 5.54602 80.5168 15.6124C80.5167 15.6123 80.5168 15.6126 80.5168 15.6124C80.517 15.6129 80.5174 15.6137 80.5176 15.6141L97.5899 47.6432L115.709 81.673L115.709 81.6739C120.791 91.2308 121.337 100.353 117.471 107.206C113.601 114.065 105.679 118 95.1977 118H60.0062C59.8425 118 59.6835 117.979 59.5317 117.939Z" fill="#007A80"/>
<path fill-rule="evenodd" clip-rule="evenodd" d="M58.8856 65.7452C59.555 65.2565 60.4498 65.2565 61.1193 65.7452L115.939 105.769C116.812 106.406 117.02 107.654 116.403 108.556C115.786 109.458 114.578 109.673 113.705 109.035L60.0024 69.8275L6.2995 109.035C5.4265 109.673 4.21876 109.458 3.60196 108.556C2.98516 107.654 3.19285 106.406 4.06586 105.769L58.8856 65.7452Z" fill="#007A80"/>
<path fill-rule="evenodd" clip-rule="evenodd" d="M60.0046 2.46729C61.0735 2.46729 61.9401 3.36272 61.9401 4.46729V67.3785C61.9401 68.483 61.0735 69.3785 60.0046 69.3785C58.9356 69.3785 58.0691 68.483 58.0691 67.3785V4.46729C58.0691 3.36272 58.9356 2.46729 60.0046 2.46729Z" fill="#007A80"/>
</svg>
