<svg width="33" height="47" viewBox="0 0 33 47" fill="none" xmlns="http://www.w3.org/2000/svg">
<path fill-rule="evenodd" clip-rule="evenodd" d="M24.9094 17.1439C25.117 17.133 25.3237 17.1777 25.5079 17.2736C25.7162 17.4148 25.8827 17.609 25.9903 17.8361C26.0978 18.0632 26.1424 18.3148 26.1195 18.5649V21.9634C26.1068 22.4339 25.9856 22.8952 25.7651 23.3115C25.5446 23.7277 25.2309 24.0877 24.8482 24.3635L24.8097 24.3923L18.5111 28.0212C18.3062 28.1408 18.0743 28.2068 17.837 28.2133C17.6566 28.2125 17.4793 28.1663 17.3217 28.0789C17.1156 27.9384 16.951 27.7454 16.8452 27.52C16.7393 27.2945 16.696 27.045 16.7198 26.7972V23.3411C16.7336 22.8713 16.8549 22.4109 17.0744 21.9949C17.2939 21.579 17.6058 21.2185 17.9862 20.941L18.0296 20.9122L24.3281 17.336C24.5012 17.2213 24.7019 17.1549 24.9094 17.1439ZM22.9991 19.7889L18.4052 22.4338V24.3299L22.9991 21.685V19.7889ZM18.044 27.21L24.304 23.5955C24.5601 23.4103 24.771 23.1701 24.9211 22.8925C25.0712 22.6149 25.1565 22.3072 25.1708 21.9922V18.5649C25.1708 18.2864 25.0697 18.1232 25.0456 18.1088C25.0215 18.0944 24.9445 18.104 24.8289 18.1712L23.8996 18.6993C23.9496 18.7765 23.9764 18.8665 23.9766 18.9585V21.9634C23.9769 22.048 23.9548 22.1312 23.9126 22.2045C23.8703 22.2778 23.8093 22.3387 23.7358 22.381L18.1788 25.5779C18.1045 25.617 18.0221 25.6384 17.9381 25.6403C17.854 25.6391 17.7714 25.6177 17.6973 25.5779V26.8212C17.6973 27.1284 17.7936 27.2484 17.8225 27.2676C17.8514 27.2868 17.9333 27.2772 18.044 27.21Z" fill="#007A80"/>
<path fill-rule="evenodd" clip-rule="evenodd" d="M31.2526 6.53073C31.4802 6.85458 31.6044 7.23939 31.6089 7.63478C31.8882 12.0654 32.1579 16.7936 32.1579 21.4642C32.1579 23.8355 32.0953 26.2644 31.9749 28.6645C31.9075 30.0421 31.8401 31.1894 31.763 32.2742C31.7812 33.2744 31.663 34.2723 31.4115 35.2407C30.8096 36.82 29.3409 37.804 28.0407 38.6729L27.4629 39.0665C25.8961 40.1713 24.2745 41.1967 22.6041 42.1386C19.7341 43.7707 16.7197 45.1916 13.8016 46.5644L13.2671 46.814C13.0521 46.9335 12.8101 46.9963 12.564 46.9964C12.5015 47.0012 12.4387 47.0012 12.3762 46.9964H12.2895L12.1547 46.9484C12.0971 46.9419 12.0415 46.924 11.991 46.8956L0.761439 40.8666L0.713285 40.833C0.467091 40.6591 0.272056 40.4228 0.148428 40.1485C0.0248 39.8741 -0.0229151 39.5718 0.0102356 39.2729V12.8718C0.0193576 12.27 0.169026 11.6786 0.447368 11.1445C0.725709 10.6104 1.12507 10.1483 1.61377 9.79487L1.6571 9.76607L18.2221 0.247269C18.4196 0.109783 18.6499 0.0263465 18.8898 0.00528886C19.1298 -0.0157688 19.3711 0.026289 19.5897 0.127264L24.174 2.61377L26.3939 3.81382L27.3569 4.33224H27.4388C27.5043 4.35757 27.5635 4.39689 27.6122 4.44744C28.5271 4.95627 29.4468 5.43629 30.3714 5.91631C30.6873 6.03761 30.9719 6.22787 31.2044 6.47313C31.2241 6.48899 31.2405 6.50856 31.2526 6.53073ZM29.3216 32.5046L30.824 31.6358V31.6406C30.8481 31.2662 30.8722 30.887 30.8963 30.4933L29.7983 31.1222C29.5876 31.2642 29.4127 31.4529 29.2873 31.6736C29.162 31.8943 29.0897 32.141 29.076 32.3942C29.0721 32.4564 29.0872 32.5184 29.1194 32.5718C29.191 32.5648 29.2601 32.5418 29.3216 32.5046ZM29.3216 12.5598L30.8818 11.6525L30.8192 10.6061L29.7935 11.2013C29.5825 11.3431 29.4074 11.5318 29.282 11.7525C29.1567 11.9733 29.0845 12.2201 29.0712 12.4734C29.0722 12.5289 29.0908 12.5826 29.1242 12.627C29.1945 12.6209 29.2623 12.5979 29.3216 12.5598ZM31.1756 21.5506V21.4738C31.1756 21.1377 31.1659 20.7969 31.1467 20.4561L30.2125 20.9937C30.002 21.1327 29.8271 21.3188 29.7016 21.5371C29.5762 21.7555 29.5038 22.0001 29.4902 22.2514C29.4851 22.3167 29.5003 22.3821 29.5335 22.4386C29.6034 22.4308 29.6708 22.4079 29.7309 22.3714L31.1756 21.5506ZM18.7229 1.0681L2.15791 10.5869C1.79759 10.8525 1.50336 11.1971 1.29796 11.5942C1.09256 11.9912 0.981481 12.43 0.973317 12.8766V16.8176L7.88343 20.7921V17.096C7.89416 16.4932 8.0471 15.9015 8.32986 15.3686C8.61262 14.8357 9.01726 14.3767 9.51103 14.0286L25.8834 4.60585L23.7261 3.4346L19.1611 0.9865C19.0962 0.961047 19.0259 0.952538 18.9568 0.961779C18.8877 0.97102 18.8221 0.997704 18.7662 1.0393L18.7229 1.0681ZM0.968502 39.2969C0.970869 39.316 0.970869 39.3354 0.968502 39.3545C0.951292 39.483 0.968513 39.6138 1.01841 39.7335C1.06831 39.8532 1.14912 39.9576 1.25261 40.0361L7.93158 43.6123V37.2472C7.92703 37.2154 7.92703 37.1831 7.93158 37.1512C7.93901 37.1202 7.94867 37.0897 7.96047 37.06V37.036L9.4051 34.5543V27.0276L7.96047 22.8514C7.91298 22.7783 7.88635 22.6937 7.88343 22.6066V21.901L0.968502 17.9264V39.2969ZM13.9605 40.3145L12.4484 41.1834V41.1882C12.439 41.3737 12.4307 41.5592 12.4225 41.7441C12.4139 41.9372 12.4053 42.1298 12.3955 42.321L13.4837 41.697C13.6945 41.555 13.8694 41.3662 13.9948 41.1455C14.1201 40.9248 14.1924 40.6782 14.2061 40.425C14.21 40.3627 14.1949 40.3008 14.1627 40.2473C14.0911 40.2544 14.022 40.2774 13.9605 40.3145ZM12.7518 31.103H12.6988V32.207L13.8305 31.583C14.043 31.444 14.2193 31.2565 14.3449 31.0362C14.4705 30.8159 14.5418 30.5689 14.5528 30.3157C14.5571 30.252 14.542 30.1884 14.5094 30.1333C14.4394 30.1464 14.3724 30.1724 14.312 30.2101L12.7518 31.103ZM12.3726 21.2959C12.4033 21.2885 12.4335 21.279 12.4629 21.2674L14.0327 20.3601C14.0933 20.3248 14.1605 20.3019 14.2301 20.2929C14.2623 20.3464 14.2774 20.4083 14.2735 20.4705C14.2606 20.7233 14.1885 20.9695 14.0631 21.1895C13.9377 21.4096 13.7624 21.5973 13.5512 21.7378L12.434 22.3618C12.4318 22.3213 12.4295 22.2807 12.4273 22.2399C12.4105 21.9339 12.3933 21.6203 12.3726 21.2959ZM27.2467 38.0895C27.333 38.0319 27.4196 37.9741 27.5062 37.9144L27.5736 37.869C28.7324 37.0882 30.042 36.2059 30.4388 34.9863C30.6195 34.2633 30.7212 33.523 30.7422 32.7782L29.7791 33.3447C29.5739 33.4629 29.3419 33.5273 29.1049 33.5319C28.9358 33.5316 28.7697 33.4869 28.6234 33.4023C28.4534 33.2912 28.3161 33.1371 28.2256 32.9558C28.1351 32.7744 28.0945 32.5723 28.1081 32.3702C28.1254 31.9552 28.2409 31.5502 28.4451 31.1882C28.6493 30.8261 28.9364 30.5173 29.2831 30.2869L30.8674 29.3749C30.893 29.3728 30.9188 29.3728 30.9444 29.3749C30.9829 29.1301 30.9829 28.8997 30.9829 28.6501C31.0841 26.6628 31.1515 24.6611 31.1515 22.669L30.2221 23.2066C30.0198 23.3282 29.7889 23.3944 29.5528 23.3986C29.3841 23.3998 29.218 23.3568 29.0712 23.2738C28.8969 23.1636 28.7554 23.0089 28.6614 22.8257C28.5674 22.6425 28.5244 22.4376 28.5367 22.2322C28.5553 21.8204 28.6726 21.4189 28.8787 21.0615C29.0847 20.7041 29.3737 20.401 29.7213 20.1777L31.1418 19.3569C31.113 17.1392 31.0359 14.9263 30.9251 12.7374L29.7887 13.3902C29.586 13.5153 29.353 13.5834 29.1146 13.587C28.9458 13.5882 28.7798 13.5452 28.633 13.4622C28.4602 13.3535 28.3201 13.2001 28.2277 13.0184C28.1353 12.8367 28.094 12.6334 28.1081 12.4302C28.132 12.0167 28.2535 11.6147 28.4627 11.2568C28.6719 10.899 28.9629 10.5954 29.312 10.3709L30.7566 9.52606C30.7384 9.23256 30.7212 8.93799 30.7041 8.64439C30.6851 8.31853 30.6661 7.99386 30.6459 7.67318C30.6582 7.46699 30.6097 7.26171 30.5062 7.08276C30.3692 6.94883 30.205 6.84571 30.0247 6.78034H29.9717C28.9749 6.26672 27.9589 5.7291 26.9958 5.19628C26.8793 5.18061 26.7612 5.20793 26.6635 5.27308L10.0167 14.8351C9.65931 15.0966 9.36796 15.4375 9.1657 15.8308C8.96343 16.2241 8.8558 16.6589 8.85132 17.1008V21.5074C8.87089 21.5846 8.87089 21.6654 8.85132 21.7426V22.4674L10.3537 26.7876C10.3722 26.8384 10.382 26.8919 10.3826 26.946V34.6647C10.3817 34.7492 10.3585 34.832 10.3152 34.9047L8.87058 37.3864V43.5259C8.87058 43.9099 8.97652 44.1979 9.13543 44.2555C9.19497 44.2775 9.24914 44.3119 9.29434 44.3563L11.2542 45.4076C11.2242 45.0246 11.2403 44.6394 11.3024 44.2603L11.4179 42.4794C11.4854 41.2794 11.5431 40.0745 11.5913 38.8793C11.6876 36.5176 11.7358 34.1607 11.7358 31.7174C11.7358 29.2741 11.6876 26.9652 11.6057 24.6899C11.5624 23.6146 11.4998 22.453 11.4131 21.1329C11.1964 20.0104 11.1964 18.8569 11.4131 17.7344C11.5526 17.239 11.8122 16.7854 12.1691 16.4137C12.526 16.042 12.9693 15.7636 13.4597 15.6031C14.024 15.4261 14.5786 15.2194 15.121 14.9839C16.4865 14.422 17.8179 13.7809 19.1081 13.0638C21.7299 11.7574 24.2406 10.2403 26.6154 8.52762L26.6635 8.49881C27.3554 8.10855 27.951 7.56896 28.4067 6.91955C28.4801 6.81516 28.5922 6.74412 28.7181 6.72206C28.8441 6.70001 28.9737 6.72874 29.0784 6.80194C29.1832 6.87515 29.2544 6.98682 29.2766 7.1124C29.2987 7.23798 29.2699 7.36718 29.1964 7.47157C28.6594 8.23231 27.9585 8.86374 27.1451 9.31965C24.743 11.0689 22.2017 12.6198 19.5463 13.9566C18.229 14.6724 16.8721 15.3135 15.4821 15.8767C14.9236 16.1167 14.3361 16.3327 13.7438 16.52C13.4101 16.6288 13.1078 16.8167 12.863 17.0675C12.6181 17.3183 12.4378 17.6246 12.3377 17.96C12.1936 18.7258 12.1628 19.5086 12.2462 20.2833L13.5512 19.5297C13.7165 19.4072 13.914 19.3354 14.1196 19.3231C14.3252 19.3107 14.53 19.3584 14.7088 19.4603C14.8876 19.5622 15.0328 19.7138 15.1265 19.8966C15.2203 20.0795 15.2585 20.2856 15.2366 20.4897C15.2175 20.9028 15.1001 21.3054 14.8942 21.6643C14.6882 22.0232 14.3995 22.3281 14.052 22.5538L12.4966 23.437C12.5022 23.5327 12.5084 23.6281 12.5145 23.723C12.5346 24.0331 12.5544 24.3383 12.5544 24.6323C12.6314 26.394 12.6988 28.1604 12.6988 29.9941L13.8305 29.3413C14.0018 29.2271 14.2006 29.1607 14.4063 29.1488C14.6121 29.137 14.8173 29.1803 15.0006 29.2741C15.1773 29.3859 15.3197 29.5441 15.4122 29.7312C15.5048 29.9183 15.544 30.1271 15.5255 30.3349C15.5084 30.7484 15.3918 31.1518 15.1857 31.511C14.9795 31.8702 14.6898 32.1748 14.3409 32.399L12.7614 33.3159H12.694C12.6796 35.1879 12.641 37.0696 12.5688 38.9225C12.5633 39.0661 12.5542 39.2104 12.5451 39.3548C12.5305 39.587 12.5158 39.8197 12.5158 40.0505L13.4789 39.4841C13.6506 39.3723 13.849 39.3081 14.0538 39.298C14.2586 39.2878 14.4624 39.3322 14.6443 39.4265C14.8155 39.5366 14.954 39.6904 15.0454 39.8719C15.1369 40.0533 15.1779 40.2559 15.1643 40.4586C15.1424 40.8704 15.0243 41.2714 14.8195 41.6298C14.6147 41.9881 14.3288 42.2938 13.9845 42.5226L12.4003 43.4299C12.3741 43.4423 12.3467 43.452 12.3184 43.4587L12.2654 44.3467V44.3995C12.1836 44.8535 12.1836 45.3184 12.2654 45.7724C12.2862 45.8384 12.3211 45.8992 12.3676 45.9506C12.4142 46.002 12.4713 46.0427 12.5351 46.07C12.636 46.0766 12.7365 46.0532 12.824 46.0028L13.3923 45.734C16.2911 44.3707 19.2911 42.9595 22.1226 41.3466C23.7679 40.4218 25.364 39.4124 26.9043 38.3225C27.0172 38.2429 27.1316 38.1664 27.2467 38.0895Z" fill="#007A80"/>
</svg>
