<svg width="60" height="60" viewBox="0 0 60 60" fill="none" xmlns="http://www.w3.org/2000/svg">
<path d="M0 30C0 46.5685 13.4315 60 30 60C46.5685 60 60 46.5685 60 30C60 13.4315 46.5685 0 30 0C13.4315 0 0 13.4315 0 30Z" fill="#25D366"/>
<path fill-rule="evenodd" clip-rule="evenodd" d="M44.4103 15.382C40.557 11.5287 35.4193 9.47363 30.0246 9.47363C18.7216 9.47363 9.47363 18.7216 9.47363 30.0246C9.47363 33.621 10.5012 37.2175 12.2994 40.3001L9.47363 50.5756L20.2629 47.7498C23.3456 49.2912 26.6851 50.3187 30.0246 50.3187C41.3277 50.3187 50.5756 41.0708 50.5756 29.7677C50.5756 24.3731 48.2636 19.2354 44.4103 15.382ZM30.0246 46.9792C26.942 46.9792 23.8593 46.2085 21.2905 44.6672L20.7767 44.4103L14.3545 46.2085L16.1527 40.0432L15.6389 39.2726C13.8407 36.4468 13.07 33.3642 13.07 30.2815C13.07 21.0336 20.7767 13.3269 30.0246 13.3269C34.6486 13.3269 38.7588 15.1252 42.0984 18.2078C45.4379 21.5473 46.9792 25.6575 46.9792 30.2815C46.9792 39.2726 39.5295 46.9792 30.0246 46.9792ZM39.2726 34.1348C38.7588 33.8779 36.1899 32.5935 35.6762 32.5935C35.1624 32.3366 34.9054 32.3366 34.6486 32.8504C34.3917 33.3642 33.3642 34.3917 33.1073 34.9055C32.8504 35.1624 32.5935 35.1624 32.0797 35.1624C31.5659 34.9055 30.0247 34.3917 27.9696 32.5935C26.4282 31.3091 25.4007 29.5108 25.1438 28.9971C24.8869 28.4833 25.1438 28.2264 25.4007 27.9695C25.6576 27.7126 25.9144 27.4557 26.1713 27.1989C26.4282 26.942 26.4282 26.6851 26.6851 26.4282C26.942 26.1713 26.6851 25.9144 26.6851 25.6575C26.6851 25.4006 25.6576 22.8318 25.1438 21.8042C24.8869 21.0336 24.3731 21.0336 24.1162 21.0336C23.8594 21.0336 23.6024 21.0336 23.0886 21.0336C22.8317 21.0336 22.318 21.0336 21.8042 21.5473C21.2904 22.0611 20.006 23.3455 20.006 25.9144C20.006 28.4833 21.8042 30.7953 22.0611 31.3091C22.318 31.5659 25.6575 36.9606 30.7952 39.0157C35.1623 40.8139 35.9331 40.3001 36.9606 40.3001C37.9882 40.3001 40.0432 39.0157 40.3001 37.9881C40.8139 36.7037 40.8139 35.6761 40.557 35.6761C40.3001 34.3917 39.7864 34.3917 39.2726 34.1348Z" fill="white"/>
</svg>
